<?xml version="1.0" encoding="UTF-8" standalone="no"?>
<!-- Created with Inkscape (http://www.inkscape.org/) -->

<svg
   xmlns:dc="http://purl.org/dc/elements/1.1/"
   xmlns:cc="http://creativecommons.org/ns#"
   xmlns:rdf="http://www.w3.org/1999/02/22-rdf-syntax-ns#"
   xmlns:svg="http://www.w3.org/2000/svg"
   xmlns="http://www.w3.org/2000/svg"
   xmlns:xlink="http://www.w3.org/1999/xlink"
   xmlns:sodipodi="http://sodipodi.sourceforge.net/DTD/sodipodi-0.dtd"
   xmlns:inkscape="http://www.inkscape.org/namespaces/inkscape"
   version="1.0"
   width="388.84pt"
   height="115.02pt"
   id="svg2"
   sodipodi:version="0.32"
   inkscape:version="0.48.2 r9819"
   sodipodi:docname="python_logo_2_half.dxf">
  <metadata
     id="metadata2193">
    <rdf:RDF>
      <cc:Work
         rdf:about="">
        <dc:format>image/svg+xml</dc:format>
        <dc:type
           rdf:resource="http://purl.org/dc/dcmitype/StillImage" />
        <dc:title></dc:title>
      </cc:Work>
    </rdf:RDF>
  </metadata>
  <sodipodi:namedview
     inkscape:window-height="543"
     inkscape:window-width="1045"
     inkscape:pageshadow="2"
     inkscape:pageopacity="0.0"
     borderopacity="1.0"
     bordercolor="#666666"
     pagecolor="#ffffff"
     id="base"
     inkscape:zoom="4.0559897"
     inkscape:cx="59.803419"
     inkscape:cy="14.818733"
     inkscape:window-x="0"
     inkscape:window-y="26"
     inkscape:current-layer="svg2"
     showgrid="false"
     showguides="true"
     inkscape:guide-bbox="true"
     inkscape:window-maximized="0" />
  <defs
     id="defs4">
    <linearGradient
       id="linearGradient2795">
      <stop
         style="stop-color:#b8b8b8;stop-opacity:0.49803922"
         offset="0"
         id="stop2797" />
      <stop
         style="stop-color:#7f7f7f;stop-opacity:0"
         offset="1"
         id="stop2799" />
    </linearGradient>
    <linearGradient
       id="linearGradient2787">
      <stop
         style="stop-color:#7f7f7f;stop-opacity:0.5"
         offset="0"
         id="stop2789" />
      <stop
         style="stop-color:#7f7f7f;stop-opacity:0"
         offset="1"
         id="stop2791" />
    </linearGradient>
    <linearGradient
       id="linearGradient3676">
      <stop
         style="stop-color:#b2b2b2;stop-opacity:0.5"
         offset="0"
         id="stop3678" />
      <stop
         style="stop-color:#b3b3b3;stop-opacity:0"
         offset="1"
         id="stop3680" />
    </linearGradient>
    <linearGradient
       id="linearGradient3236">
      <stop
         style="stop-color:#f4f4f4;stop-opacity:1"
         offset="0"
         id="stop3244" />
      <stop
         style="stop-color:#ffffff;stop-opacity:1"
         offset="1"
         id="stop3240" />
    </linearGradient>
    <linearGradient
       id="linearGradient4671">
      <stop
         style="stop-color:#ffd43b;stop-opacity:1"
         offset="0"
         id="stop4673" />
      <stop
         style="stop-color:#ffe873;stop-opacity:1"
         offset="1"
         id="stop4675" />
    </linearGradient>
    <linearGradient
       id="linearGradient4689">
      <stop
         style="stop-color:#5a9fd4;stop-opacity:1"
         offset="0"
         id="stop4691" />
      <stop
         style="stop-color:#306998;stop-opacity:1"
         offset="1"
         id="stop4693" />
    </linearGradient>
    <linearGradient
       x1="224.23996"
       y1="144.75717"
       x2="-65.308502"
       y2="144.75717"
       id="linearGradient2987"
       xlink:href="#linearGradient4671"
       gradientUnits="userSpaceOnUse"
       gradientTransform="translate(100.2702,99.61116)" />
    <linearGradient
       x1="172.94208"
       y1="77.475983"
       x2="26.670298"
       y2="76.313133"
       id="linearGradient2990"
       xlink:href="#linearGradient4689"
       gradientUnits="userSpaceOnUse"
       gradientTransform="translate(100.2702,99.61116)" />
    <linearGradient
       x1="172.94208"
       y1="77.475983"
       x2="26.670298"
       y2="76.313133"
       id="linearGradient2587"
       xlink:href="#linearGradient4689"
       gradientUnits="userSpaceOnUse"
       gradientTransform="translate(100.2702,99.61116)" />
    <linearGradient
       x1="224.23996"
       y1="144.75717"
       x2="-65.308502"
       y2="144.75717"
       id="linearGradient2589"
       xlink:href="#linearGradient4671"
       gradientUnits="userSpaceOnUse"
       gradientTransform="translate(100.2702,99.61116)" />
    <linearGradient
       x1="172.94208"
       y1="77.475983"
       x2="26.670298"
       y2="76.313133"
       id="linearGradient2248"
       xlink:href="#linearGradient4689"
       gradientUnits="userSpaceOnUse"
       gradientTransform="translate(100.2702,99.61116)" />
    <linearGradient
       x1="224.23996"
       y1="144.75717"
       x2="-65.308502"
       y2="144.75717"
       id="linearGradient2250"
       xlink:href="#linearGradient4671"
       gradientUnits="userSpaceOnUse"
       gradientTransform="translate(100.2702,99.61116)" />
    <linearGradient
       x1="224.23996"
       y1="144.75717"
       x2="-65.308502"
       y2="144.75717"
       id="linearGradient2255"
       xlink:href="#linearGradient4671"
       gradientUnits="userSpaceOnUse"
       gradientTransform="matrix(0.562541,0,0,0.567972,-11.5974,-7.60954)" />
    <linearGradient
       x1="172.94208"
       y1="76.176224"
       x2="26.670298"
       y2="76.313133"
       id="linearGradient2258"
       xlink:href="#linearGradient4689"
       gradientUnits="userSpaceOnUse"
       gradientTransform="matrix(0.562541,0,0,0.567972,-11.5974,-7.60954)" />
    <radialGradient
       cx="61.518883"
       cy="132.28575"
       r="29.036913"
       fx="61.518883"
       fy="132.28575"
       id="radialGradient2801"
       xlink:href="#linearGradient2795"
       gradientUnits="userSpaceOnUse"
       gradientTransform="matrix(1,0,0,0.177966,0,108.7434)" />
    <linearGradient
       x1="150.96111"
       y1="192.35176"
       x2="112.03144"
       y2="137.27299"
       id="linearGradient1475"
       xlink:href="#linearGradient4671"
       gradientUnits="userSpaceOnUse"
       gradientTransform="matrix(0.562541,0,0,0.567972,-9.399749,-5.305317)" />
    <linearGradient
       x1="26.648937"
       y1="20.603781"
       x2="135.66525"
       y2="114.39767"
       id="linearGradient1478"
       xlink:href="#linearGradient4689"
       gradientUnits="userSpaceOnUse"
       gradientTransform="matrix(0.562541,0,0,0.567972,-9.399749,-5.305317)" />
    <radialGradient
       cx="61.518883"
       cy="132.28575"
       r="29.036913"
       fx="61.518883"
       fy="132.28575"
       id="radialGradient1480"
       xlink:href="#linearGradient2795"
       gradientUnits="userSpaceOnUse"
       gradientTransform="matrix(2.382716e-8,-0.296405,1.43676,4.683673e-7,-128.544,150.5202)" />
    <linearGradient
       x1="150.96111"
       y1="192.35176"
       x2="112.03144"
       y2="137.27299"
       id="linearGradient1475-6"
       xlink:href="#linearGradient4671-7"
       gradientUnits="userSpaceOnUse"
       gradientTransform="matrix(0.562541,0,0,0.567972,-62.203645,75.878118)" />
    <linearGradient
       id="linearGradient4671-7">
      <stop
         style="stop-color:#ffd43b;stop-opacity:1"
         offset="0"
         id="stop4673-8" />
      <stop
         style="stop-color:#ffe873;stop-opacity:1"
         offset="1"
         id="stop4675-9" />
    </linearGradient>
    <linearGradient
       x1="26.648937"
       y1="20.603781"
       x2="135.66525"
       y2="114.39767"
       id="linearGradient1478-5"
       xlink:href="#linearGradient4689-5"
       gradientUnits="userSpaceOnUse"
       gradientTransform="matrix(0.562541,0,0,0.567972,-9.399749,-5.305317)" />
    <linearGradient
       id="linearGradient4689-5">
      <stop
         style="stop-color:#5a9fd4;stop-opacity:1"
         offset="0"
         id="stop4691-1" />
      <stop
         style="stop-color:#306998;stop-opacity:1"
         offset="1"
         id="stop4693-0" />
    </linearGradient>
  </defs>
  <path
     inkscape:connector-curvature="0"
     id="path1948"
     style="fill:none;stroke:#000000;stroke-opacity:1"
     d="m 7.7062571,87.581408 -0.8569386,0.0083 -0.8516341,0.01685 -0.8458617,0.02529 -0.8396216,0.0336 -0.8329136,0.0418 -0.8257378,0.04989 -0.8180943,0.05785 -0.8099828,0.06571 -0.80140358,0.07344 -0.79235665,0.08106 -0.78284187,0.08857 -0.7728592,0.09596 -0.7624088,0.103234 -0.7514904,0.110392 -0.7401044,0.117436 -0.7282506,0.124362 -2.0203573,0.401852 -1.8132976,0.455184 -1.6168232,0.510496 -1.430933,0.567785 -1.255629,0.627053 -1.090911,0.688299 -0.936777,0.751523 -0.793228,0.816728 -0.660264,0.88391 -0.537887,0.953071 -0.426093,1.02421 -0.324885,1.097328 -0.234263,1.172424 -0.154224,1.2495 -0.08477,1.328555 -0.0259,1.40959 0,0.63867 0,0.63867 0,0.63867 0,0.63868 0,0.63867 0,0.63867 0,0.63867 0,0.63867 0,0.63867 0,0.63867 0,0.63867 0,0.63868 0,0.63867 0,0.63867 0,0.63867 0,0.63868 1.675781,0 1.675782,0 1.675781,0 1.675781,0 1.675781,0 1.6757816,0 1.6757812,0 1.6757813,0 1.6757813,0 1.6757812,0 1.67578125,0 1.67578125,0 1.6757813,0 1.6757812,0 1.6757813,0 1.6757812,0 0,0.21289 0,0.21289 0,0.21289 0,0.21289 0,0.21289 0,0.21289 0,0.21289 0,0.21289 0,0.21289 0,0.21289 0,0.21289 0,0.2129 0,0.21289 0,0.21289 0,0.21289 0,0.21289 -1.6757812,0 -1.6757813,0 -1.6757812,0 -1.6757813,0 -1.67578125,0 -1.67578125,0 -1.6757812,0 -1.6757813,0 -1.6757813,0 -1.6757812,0 -1.6757816,0 -1.675781,0 -1.675781,0 -1.675781,0 -1.675782,0 -1.675781,0 -0.628906,0 -0.628906,0 -0.628907,0 -0.628906,0 -0.628906,0 -0.628906,0 -0.628907,0 -0.628906,0 -0.628906,0 -0.628906,0 -0.628907,0 -0.628906,0 -0.628906,0 -0.628906,0 -0.628907,0 -0.628906,0 -1.448821,0.0548 -1.420657,0.16388 -1.387044,0.27232 -1.347982,0.38008 -1.303471,0.48717 -1.253511,0.5936 -1.198102,0.69935 -1.137244,0.80444 -1.070939,0.90885 -0.99918,1.0126 -0.921974,1.11567 -0.83932,1.21808 -0.751217,1.3198 -0.657664,1.42088 -0.558664,1.52126 -0.454212,1.621 -0.433941,1.87191 -0.378322,1.79383 -0.322223,1.72766 -0.265643,1.67339 -0.208583,1.63102 -0.151045,1.60058 -0.09303,1.58205 -0.03453,1.57543 0.02445,1.5807 0.08391,1.59791 0.143848,1.62701 0.204265,1.66803 0.265163,1.72095 0.326541,1.78579 0.388398,1.86254 0.450736,1.9512 0.388511,1.46078 0.451392,1.40235 0.515143,1.33899 0.579767,1.27068 0.645262,1.19742 0.71163,1.11924 0.778868,1.03609 0.84698,0.94802 0.915962,0.85499 0.985818,0.75703 1.056543,0.65412 1.128142,0.54628 1.200611,0.43348 1.273954,0.31575 1.348167,0.19307 1.423252,0.0655 0.576172,0 0.576172,0 0.576172,0 0.576172,0 0.576172,0 0.576172,0 0.576171,0 0.576172,0 0.576172,0 0.576172,0 0.576172,0 0.576172,0 0.576172,0 0.576172,0 0.576171,0 0.576172,0 0,-0.76563 0,-0.76562 0,-0.76563 0,-0.76562 0,-0.76563 0,-0.76562 0,-0.76563 0,-0.76562 0,-0.76563 0,-0.76562 0,-0.76563 0,-0.76562 0,-0.76563 0,-0.76562 0,-0.76563 0,-0.76562 0.08821,-1.64548 0.258565,-1.61111 0.419801,-1.56684 0.571926,-1.51266 0.714936,-1.44858 0.848834,-1.37459 0.973617,-1.29069 1.089287,-1.19689 1.195842,-1.09318 1.293289,-0.97956 1.381619,-0.85604 1.460835,-0.72261 1.530936,-0.57928 1.591928,-0.42603 1.6438047,-0.26289 1.6865674,-0.0898 1.6738281,0 1.6738282,0 1.67382808,0 1.67382812,0 1.6738281,0 1.6738282,0 1.6738281,0 1.6738281,0 1.6738282,0 1.6738287,0 1.673828,0 1.673828,0 1.673828,0 1.673828,0 1.673828,0 1.673828,0 1.379097,-0.0708 1.337339,-0.20761 1.289068,-0.33744 1.23428,-0.46025 1.172978,-0.57606 1.105162,-0.68484 1.030828,-0.78661 0.949981,-0.88135 0.86262,-0.9691 0.76874,-1.04982 0.668346,-1.12352 0.561438,-1.19021 0.448016,-1.24989 0.328077,-1.30254 0.201624,-1.34819 0.06866,-1.3868 0,-1.59571 0,-1.5957 0,-1.5957 0,-1.5957 0,-1.59571 0,-1.5957 0,-1.5957 0,-1.5957 0,-1.59571 0,-1.5957 0,-1.59571 0,-1.5957 0,-1.59571 0,-1.5957 0,-1.5957 0,-1.5957 -0.07062,-1.34066 -0.20699,-1.294714 -0.336061,-1.245199 -0.457831,-1.192113 -0.572301,-1.135454 -0.679471,-1.075227 -0.779341,-1.011428 -0.87191,-0.94406 -0.957178,-0.873119 -1.035147,-0.798607 -1.105815,-0.720525 -1.169183,-0.638871 -1.22525,-0.553646 -1.274018,-0.464851 -1.315484,-0.372484 -1.349651,-0.276546 -0.865562,-0.138869 -0.869079,-0.129134 -0.872056,-0.119472 -0.874495,-0.109879 -0.876392,-0.100359 -0.877751,-0.09091 -0.878568,-0.08153 -0.878847,-0.07223 -0.878585,-0.06299 -0.877784,-0.05383 -0.876442,-0.04474 -0.87456,-0.03572 -0.872139,-0.02676 -0.8691777,-0.01789 -0.8656767,-0.0091 -0.8616355,-3.6e-4 z m -14.5,8.218755 0.5129106,0.02651 0.4984388,0.07779 0.481398,0.126471 0.4617881,0.172564 0.4396089,0.216062 0.4148607,0.256965 0.3875432,0.295274 0.3576568,0.33099 0.3252014,0.364112 0.2901764,0.394638 0.2525824,0.422572 0.2124194,0.447911 0.1696874,0.470655 0.1243861,0.490806 0.076516,0.508357 0.026076,0.52333 -0.026076,0.52133 -0.076516,0.50614 -0.1243861,0.48842 -0.1696874,0.46815 -0.212421,0.44534 -0.2525824,0.41997 -0.2901755,0.39205 -0.3252007,0.3616 -0.3576589,0.3286 -0.387543,0.29304 -0.4148595,0.25496 -0.4396082,0.2143 -0.461788,0.17111 -0.481398,0.12538 -0.4984389,0.0771 -0.5129106,0.0263 -0.5145468,-0.0263 -0.4996533,-0.0771 -0.4822344,-0.12538 -0.4622898,-0.17111 -0.4398198,-0.2143 -0.4148242,-0.25495 -0.3873032,-0.29305 -0.3572566,-0.3286 -0.324683,-0.3616 -0.289588,-0.39206 -0.251965,-0.41996 -0.211817,-0.44534 -0.16914,-0.46815 -0.123943,-0.48842 -0.07622,-0.50615 -0.02597,-0.52132 0.02597,-0.52333 0.07622,-0.508358 0.123942,-0.490805 0.169142,-0.470655 0.211816,-0.44791 0.251964,-0.422572 0.289588,-0.394638 0.324685,-0.364112 0.3572567,-0.33099 0.3873032,-0.295275 0.4148242,-0.256965 0.4398197,-0.216062 0.4622898,-0.172564 0.4822344,-0.126471 0.4996533,-0.07779 z"
     sodipodi:nodetypes="ccccccccccccccccccccccccccccccccccccccccccccccccccccccccccccccccccccccccccccccccccccccccccccccccccccccccccccccccccccccccccccccccccccccccccccccccccccccccccccccccccccccccccccccccccccccccccccccccccccccccccccccccccccccccccccccccccccccccccccccccccccccccccccccccccccccccccccccccccccccccccccccccccccccccccccccccccccccccccccccccccccccccccccccccccccccccccccccccccc" />
</svg>
