999
DXF created by Inkscape
  0
SECTION
  2
HEADER
  9
$ACADVER
  1
AC1014
  9
$HANDSEED
  5
FFFF
  9
$MEASUREMENT
 70
     1
  0
ENDSEC
  0
SECTION
  2
TABLES
  0
TABLE
  2
VPORT
  5
8
330
0
100
AcDbSymbolTable
 70
     4
  0
VPORT
  5
2E
330
8
100
AcDbSymbolTableRecord
100
AcDbViewportTableRecord
  2
*ACTIVE
 70
     0
 10
0.0
 20
0.0
 11
1.0
 21
1.0
 12
210.0
 22
148.5
 13
0.0
 23
0.0
 14
10.0
 24
10.0
 15
10.0
 25
10.0
 16
0.0
 26
0.0
 36
1.0
 17
0.0
 27
0.0
 37
0.0
 40
341.0
 41
1.24
 42
50.0
 43
0.0
 44
0.0
 50
0.0
 51
0.0
 71
     0
 72
   100
 73
     1
 74
     3
 75
     0
 76
     0
 77
     0
 78
     0
  0
ENDTAB
  0
TABLE
  2
LTYPE
  5
5
330
0
100
AcDbSymbolTable
 70
     1
  0
LTYPE
  5
14
330
5
100
AcDbSymbolTableRecord
100
AcDbLinetypeTableRecord
  2
BYBLOCK
 70
     0
  3

 72
    65
 73
     0
 40
0.0
  0
LTYPE
  5
15
330
5
100
AcDbSymbolTableRecord
100
AcDbLinetypeTableRecord
  2
BYLAYER
 70
     0
  3

 72
    65
 73
     0
 40
0.0
  0
LTYPE
  5
16
330
5
100
AcDbSymbolTableRecord
100
AcDbLinetypeTableRecord
  2
CONTINUOUS
 70
     0
  3
Solid line
 72
    65
 73
     0
 40
0.0
  0
ENDTAB
  0
TABLE
  2
LAYER
  5
2
100
AcDbSymbolTable
 70
1
  0
LAYER
  5
50
100
AcDbSymbolTableRecord
100
AcDbLayerTableRecord
  2
0
 70
0
  6
CONTINUOUS
  0
ENDTAB
  0
TABLE
  2
STYLE
  5
3
330
0
100
AcDbSymbolTable
 70
     1
  0
STYLE
  5
11
330
3
100
AcDbSymbolTableRecord
100
AcDbTextStyleTableRecord
  2
STANDARD
 70
     0
 40
0.0
 41
1.0
 50
0.0
 71
     0
 42
2.5
  3
txt
  4

  0
ENDTAB
  0
TABLE
  2
VIEW
  5
6
330
0
100
AcDbSymbolTable
 70
     0
  0
ENDTAB
  0
TABLE
  2
UCS
  5
7
330
0
100
AcDbSymbolTable
 70
     0
  0
ENDTAB
  0
TABLE
  2
APPID
  5
9
330
0
100
AcDbSymbolTable
 70
     2
  0
APPID
  5
12
330
9
100
AcDbSymbolTableRecord
100
AcDbRegAppTableRecord
  2
ACAD
 70
     0
  0
ENDTAB
  0
TABLE
  2
DIMSTYLE
  5
A
330
0
100
AcDbSymbolTable
 70
     1
  0
DIMSTYLE
105
27
330
A
100
AcDbSymbolTableRecord
100
AcDbDimStyleTableRecord
  2
ISO-25
 70
     0
  3

  4

  5

  6

  7

 40
1.0
 41
2.5
 42
0.625
 43
3.75
 44
1.25
 45
0.0
 46
0.0
 47
0.0
 48
0.0
140
2.5
141
2.5
142
0.0
143
0.03937007874016
144
1.0
145
0.0
146
1.0
147
0.625
 71
     0
 72
     0
 73
     0
 74
     0
 75
     0
 76
     0
 77
     1
 78
     8
170
     0
171
     3
172
     1
173
     0
174
     0
175
     0
176
     0
177
     0
178
     0
270
     2
271
     2
272
     2
273
     2
274
     3
340
11
275
     0
280
     0
281
     0
282
     0
283
     0
284
     8
285
     0
286
     0
287
     3
288
     0
  0
ENDTAB
  0
TABLE
  2
BLOCK_RECORD
  5
1
330
0
100
AcDbSymbolTable
 70
     1
  0
BLOCK_RECORD
  5
1F
330
1
100
AcDbSymbolTableRecord
100
AcDbBlockTableRecord
  2
*MODEL_SPACE
  0
BLOCK_RECORD
  5
1B
330
1
100
AcDbSymbolTableRecord
100
AcDbBlockTableRecord
  2
*PAPER_SPACE
  0
ENDTAB
  0
ENDSEC
  0
SECTION
  2
BLOCKS
  0
BLOCK
  5
20
330
1F
100
AcDbEntity
  8
0
100
AcDbBlockBegin
  2
*MODEL_SPACE
 70
     0
 10
0.0
 20
0.0
 30
0.0
  3
*MODEL_SPACE
  1

  0
ENDBLK
  5
21
330
1F
100
AcDbEntity
  8
0
100
AcDbBlockEnd
  0
BLOCK
  5
1C
330
1B
100
AcDbEntity
 67
     1
  8
0
100
AcDbBlockBegin
  2
*PAPER_SPACE
  1

  0
ENDBLK
  5
1D
330
1B
100
AcDbEntity
 67
     1
  8
0
100
AcDbBlockEnd
  0
ENDSEC
  0
SECTION
  2
ENTITIES
  0
LWPOLYLINE
  5
100
100
AcDbEntity
  8
0
 62
7
100
AcDbPolyline
 90
290
 70
0
 10
2.174877
 20
15.859080
 30
0.0
 10
1.933030
 20
15.856738
 30
0.0
 10
1.692680
 20
15.851983
 30
0.0
 10
1.453959
 20
15.844845
 30
0.0
 10
1.216999
 20
15.835362
 30
0.0
 10
0.981932
 20
15.823566
 30
0.0
 10
0.748891
 20
15.809485
 30
0.0
 10
0.518006
 20
15.793159
 30
0.0
 10
0.289411
 20
15.774614
 30
0.0
 10
0.063237
 20
15.753888
 30
0.0
 10
-0.160383
 20
15.731011
 30
0.0
 10
-0.381319
 20
15.706014
 30
0.0
 10
-0.599437
 20
15.678932
 30
0.0
 10
-0.814606
 20
15.649797
 30
0.0
 10
-1.026693
 20
15.618642
 30
0.0
 10
-1.235567
 20
15.585499
 30
0.0
 10
-1.441095
 20
15.550402
 30
0.0
 10
-2.011285
 20
15.436990
 30
0.0
 10
-2.523038
 20
15.308527
 30
0.0
 10
-2.979341
 20
15.164454
 30
0.0
 10
-3.383182
 20
15.004212
 30
0.0
 10
-3.737549
 20
14.827244
 30
0.0
 10
-4.045428
 20
14.632991
 30
0.0
 10
-4.309807
 20
14.420894
 30
0.0
 10
-4.533674
 20
14.190395
 30
0.0
 10
-4.720015
 20
13.940936
 30
0.0
 10
-4.871819
 20
13.671958
 30
0.0
 10
-4.992072
 20
13.382904
 30
0.0
 10
-5.083761
 20
13.073213
 30
0.0
 10
-5.149876
 20
12.742329
 30
0.0
 10
-5.193401
 20
12.389692
 30
0.0
 10
-5.217325
 20
12.014745
 30
0.0
 10
-5.224635
 20
11.616927
 30
0.0
 10
-5.224635
 20
11.436680
 30
0.0
 10
-5.224635
 20
11.256433
 30
0.0
 10
-5.224635
 20
11.076186
 30
0.0
 10
-5.224635
 20
10.895937
 30
0.0
 10
-5.224635
 20
10.715690
 30
0.0
 10
-5.224635
 20
10.535443
 30
0.0
 10
-5.224635
 20
10.355196
 30
0.0
 10
-5.224635
 20
10.174949
 30
0.0
 10
-5.224635
 20
9.994702
 30
0.0
 10
-5.224635
 20
9.814456
 30
0.0
 10
-5.224635
 20
9.634209
 30
0.0
 10
-5.224635
 20
9.453959
 30
0.0
 10
-5.224635
 20
9.273712
 30
0.0
 10
-5.224635
 20
9.093465
 30
0.0
 10
-5.224635
 20
8.913218
 30
0.0
 10
-5.224635
 20
8.732969
 30
0.0
 10
-4.751692
 20
8.732969
 30
0.0
 10
-4.278749
 20
8.732969
 30
0.0
 10
-3.805806
 20
8.732969
 30
0.0
 10
-3.332864
 20
8.732969
 30
0.0
 10
-2.859921
 20
8.732969
 30
0.0
 10
-2.386978
 20
8.732969
 30
0.0
 10
-1.914036
 20
8.732969
 30
0.0
 10
-1.441093
 20
8.732969
 30
0.0
 10
-0.968150
 20
8.732969
 30
0.0
 10
-0.495208
 20
8.732969
 30
0.0
 10
-0.022265
 20
8.732969
 30
0.0
 10
0.450678
 20
8.732969
 30
0.0
 10
0.923621
 20
8.732969
 30
0.0
 10
1.396563
 20
8.732969
 30
0.0
 10
1.869506
 20
8.732969
 30
0.0
 10
2.342449
 20
8.732969
 30
0.0
 10
2.342449
 20
8.672886
 30
0.0
 10
2.342449
 20
8.612804
 30
0.0
 10
2.342449
 20
8.552722
 30
0.0
 10
2.342449
 20
8.492640
 30
0.0
 10
2.342449
 20
8.432557
 30
0.0
 10
2.342449
 20
8.372475
 30
0.0
 10
2.342449
 20
8.312393
 30
0.0
 10
2.342449
 20
8.252310
 30
0.0
 10
2.342449
 20
8.192228
 30
0.0
 10
2.342449
 20
8.132146
 30
0.0
 10
2.342449
 20
8.072064
 30
0.0
 10
2.342449
 20
8.011978
 30
0.0
 10
2.342449
 20
7.951896
 30
0.0
 10
2.342449
 20
7.891814
 30
0.0
 10
2.342449
 20
7.831732
 30
0.0
 10
2.342449
 20
7.771649
 30
0.0
 10
1.869506
 20
7.771649
 30
0.0
 10
1.396563
 20
7.771649
 30
0.0
 10
0.923621
 20
7.771649
 30
0.0
 10
0.450678
 20
7.771649
 30
0.0
 10
-0.022265
 20
7.771649
 30
0.0
 10
-0.495208
 20
7.771649
 30
0.0
 10
-0.968150
 20
7.771649
 30
0.0
 10
-1.441093
 20
7.771649
 30
0.0
 10
-1.914036
 20
7.771649
 30
0.0
 10
-2.386978
 20
7.771649
 30
0.0
 10
-2.859921
 20
7.771649
 30
0.0
 10
-3.332864
 20
7.771649
 30
0.0
 10
-3.805806
 20
7.771649
 30
0.0
 10
-4.278749
 20
7.771649
 30
0.0
 10
-4.751692
 20
7.771649
 30
0.0
 10
-5.224635
 20
7.771649
 30
0.0
 10
-5.402126
 20
7.771649
 30
0.0
 10
-5.579617
 20
7.771649
 30
0.0
 10
-5.757109
 20
7.771649
 30
0.0
 10
-5.934600
 20
7.771649
 30
0.0
 10
-6.112091
 20
7.771649
 30
0.0
 10
-6.289582
 20
7.771649
 30
0.0
 10
-6.467074
 20
7.771649
 30
0.0
 10
-6.644565
 20
7.771649
 30
0.0
 10
-6.822056
 20
7.771649
 30
0.0
 10
-6.999548
 20
7.771649
 30
0.0
 10
-7.177039
 20
7.771649
 30
0.0
 10
-7.354530
 20
7.771649
 30
0.0
 10
-7.532022
 20
7.771649
 30
0.0
 10
-7.709513
 20
7.771649
 30
0.0
 10
-7.887005
 20
7.771649
 30
0.0
 10
-8.064496
 20
7.771649
 30
0.0
 10
-8.473385
 20
7.756184
 30
0.0
 10
-8.874326
 20
7.709933
 30
0.0
 10
-9.265781
 20
7.633078
 30
0.0
 10
-9.646211
 20
7.525811
 30
0.0
 10
-10.014080
 20
7.388321
 30
0.0
 10
-10.367848
 20
7.220794
 30
0.0
 10
-10.705979
 20
7.023422
 30
0.0
 10
-11.026935
 20
6.796391
 30
0.0
 10
-11.329178
 20
6.539893
 30
0.0
 10
-11.611169
 20
6.254115
 30
0.0
 10
-11.871370
 20
5.939248
 30
0.0
 10
-12.108245
 20
5.595479
 30
0.0
 10
-12.320255
 20
5.223002
 30
0.0
 10
-12.505862
 20
4.821998
 30
0.0
 10
-12.663530
 20
4.392665
 30
0.0
 10
-12.791719
 20
3.935182
 30
0.0
 10
-12.914186
 20
3.406888
 30
0.0
 10
-13.020957
 20
2.900629
 30
0.0
 10
-13.111896
 20
2.413045
 30
0.0
 10
-13.186866
 20
1.940777
 30
0.0
 10
-13.245733
 20
1.480467
 30
0.0
 10
-13.288361
 20
1.028748
 30
0.0
 10
-13.314616
 20
0.582258
 30
0.0
 10
-13.324361
 20
0.137637
 30
0.0
 10
-13.317461
 20
-0.308472
 30
0.0
 10
-13.293780
 20
-0.759437
 30
0.0
 10
-13.253183
 20
-1.218616
 30
0.0
 10
-13.195535
 20
-1.689371
 30
0.0
 10
-13.120700
 20
-2.175061
 30
0.0
 10
-13.028543
 20
-2.679051
 30
0.0
 10
-12.918928
 20
-3.204701
 30
0.0
 10
-12.791720
 20
-3.755373
 30
0.0
 10
-12.682074
 20
-4.167638
 30
0.0
 10
-12.554681
 20
-4.563412
 30
0.0
 10
-12.409296
 20
-4.941305
 30
0.0
 10
-12.245673
 20
-5.299919
 30
0.0
 10
-12.063566
 20
-5.637857
 30
0.0
 10
-11.862728
 20
-5.953732
 30
0.0
 10
-11.642914
 20
-6.246139
 30
0.0
 10
-11.403878
 20
-6.513692
 30
0.0
 10
-11.145373
 20
-6.754989
 30
0.0
 10
-10.867153
 20
-6.968640
 30
0.0
 10
-10.568973
 20
-7.153247
 30
0.0
 10
-10.250586
 20
-7.307419
 30
0.0
 10
-9.911747
 20
-7.429757
 30
0.0
 10
-9.552209
 20
-7.518868
 30
0.0
 10
-9.171726
 20
-7.573357
 30
0.0
 10
-8.770053
 20
-7.591843
 30
0.0
 10
-8.607444
 20
-7.591843
 30
0.0
 10
-8.444836
 20
-7.591843
 30
0.0
 10
-8.282227
 20
-7.591843
 30
0.0
 10
-8.119619
 20
-7.591843
 30
0.0
 10
-7.957010
 20
-7.591843
 30
0.0
 10
-7.794402
 20
-7.591843
 30
0.0
 10
-7.631794
 20
-7.591843
 30
0.0
 10
-7.469185
 20
-7.591843
 30
0.0
 10
-7.306576
 20
-7.591843
 30
0.0
 10
-7.143968
 20
-7.591843
 30
0.0
 10
-6.981359
 20
-7.591843
 30
0.0
 10
-6.818751
 20
-7.591843
 30
0.0
 10
-6.656142
 20
-7.591843
 30
0.0
 10
-6.493534
 20
-7.591843
 30
0.0
 10
-6.330925
 20
-7.591843
 30
0.0
 10
-6.168317
 20
-7.591843
 30
0.0
 10
-6.168317
 20
-7.375765
 30
0.0
 10
-6.168317
 20
-7.159690
 30
0.0
 10
-6.168317
 20
-6.943612
 30
0.0
 10
-6.168317
 20
-6.727537
 30
0.0
 10
-6.168317
 20
-6.511459
 30
0.0
 10
-6.168317
 20
-6.295384
 30
0.0
 10
-6.168317
 20
-6.079307
 30
0.0
 10
-6.168317
 20
-5.863232
 30
0.0
 10
-6.168317
 20
-5.647154
 30
0.0
 10
-6.168317
 20
-5.431079
 30
0.0
 10
-6.168317
 20
-5.215001
 30
0.0
 10
-6.168317
 20
-4.998926
 30
0.0
 10
-6.168317
 20
-4.782848
 30
0.0
 10
-6.168317
 20
-4.566773
 30
0.0
 10
-6.168317
 20
-4.350695
 30
0.0
 10
-6.168317
 20
-4.134620
 30
0.0
 10
-6.143422
 20
-3.670229
 30
0.0
 10
-6.070449
 20
-3.215538
 30
0.0
 10
-5.951972
 20
-2.773341
 30
0.0
 10
-5.790562
 20
-2.346435
 30
0.0
 10
-5.588791
 20
-1.937614
 30
0.0
 10
-5.349231
 20
-1.549674
 30
0.0
 10
-5.074455
 20
-1.185412
 30
0.0
 10
-4.767034
 20
-0.847623
 30
0.0
 10
-4.429541
 20
-0.539104
 30
0.0
 10
-4.064546
 20
-0.262650
 30
0.0
 10
-3.674622
 20
-0.021057
 30
0.0
 10
-3.262342
 20
0.182880
 30
0.0
 10
-2.830278
 20
0.346366
 30
0.0
 10
-2.381001
 20
0.466601
 30
0.0
 10
-1.917082
 20
0.540794
 30
0.0
 10
-1.441096
 20
0.566138
 30
0.0
 10
-0.968704
 20
0.566138
 30
0.0
 10
-0.496313
 20
0.566138
 30
0.0
 10
-0.023921
 20
0.566138
 30
0.0
 10
0.448470
 20
0.566138
 30
0.0
 10
0.920862
 20
0.566138
 30
0.0
 10
1.393253
 20
0.566138
 30
0.0
 10
1.865645
 20
0.566138
 30
0.0
 10
2.338036
 20
0.566138
 30
0.0
 10
2.810428
 20
0.566138
 30
0.0
 10
3.282820
 20
0.566138
 30
0.0
 10
3.755211
 20
0.566138
 30
0.0
 10
4.227603
 20
0.566138
 30
0.0
 10
4.699994
 20
0.566138
 30
0.0
 10
5.172385
 20
0.566138
 30
0.0
 10
5.644777
 20
0.566138
 30
0.0
 10
6.117168
 20
0.566138
 30
0.0
 10
6.506380
 20
0.586119
 30
0.0
 10
6.883807
 20
0.644711
 30
0.0
 10
7.247611
 20
0.739944
 30
0.0
 10
7.595952
 20
0.869837
 30
0.0
 10
7.926992
 20
1.032414
 30
0.0
 10
8.238894
 20
1.225691
 30
0.0
 10
8.529816
 20
1.447690
 30
0.0
 10
8.797922
 20
1.696426
 30
0.0
 10
9.041372
 20
1.969928
 30
0.0
 10
9.258328
 20
2.266211
 30
0.0
 10
9.446950
 20
2.583293
 30
0.0
 10
9.605400
 20
2.919197
 30
0.0
 10
9.731840
 20
3.271943
 30
0.0
 10
9.824431
 20
3.639549
 30
0.0
 10
9.881334
 20
4.020038
 30
0.0
 10
9.900711
 20
4.411424
 30
0.0
 10
9.900711
 20
4.861769
 30
0.0
 10
9.900711
 20
5.312111
 30
0.0
 10
9.900711
 20
5.762453
 30
0.0
 10
9.900711
 20
6.212795
 30
0.0
 10
9.900711
 20
6.663140
 30
0.0
 10
9.900711
 20
7.113482
 30
0.0
 10
9.900711
 20
7.563824
 30
0.0
 10
9.900711
 20
8.014166
 30
0.0
 10
9.900711
 20
8.464510
 30
0.0
 10
9.900711
 20
8.914852
 30
0.0
 10
9.900711
 20
9.365197
 30
0.0
 10
9.900711
 20
9.815539
 30
0.0
 10
9.900711
 20
10.265884
 30
0.0
 10
9.900711
 20
10.716226
 30
0.0
 10
9.900711
 20
11.166568
 30
0.0
 10
9.900711
 20
11.616910
 30
0.0
 10
9.880781
 20
11.995274
 30
0.0
 10
9.822363
 20
12.360671
 30
0.0
 10
9.727520
 20
12.712094
 30
0.0
 10
9.598309
 20
13.048535
 30
0.0
 10
9.436793
 20
13.368985
 30
0.0
 10
9.245032
 20
13.672438
 30
0.0
 10
9.025084
 20
13.957886
 30
0.0
 10
8.779012
 20
14.224320
 30
0.0
 10
8.508875
 20
14.470734
 30
0.0
 10
8.216733
 20
14.696119
 30
0.0
 10
7.904648
 20
14.899467
 30
0.0
 10
7.574678
 20
15.079770
 30
0.0
 10
7.228886
 20
15.236022
 30
0.0
 10
6.869330
 20
15.367213
 30
0.0
 10
6.498071
 20
15.472336
 30
0.0
 10
6.117169
 20
15.550383
 30
0.0
 10
5.872888
 20
15.589575
 30
0.0
 10
5.627615
 20
15.626020
 30
0.0
 10
5.381501
 20
15.659738
 30
0.0
 10
5.134699
 20
15.690748
 30
0.0
 10
4.887362
 20
15.719071
 30
0.0
 10
4.639641
 20
15.744728
 30
0.0
 10
4.391690
 20
15.767738
 30
0.0
 10
4.143660
 20
15.788123
 30
0.0
 10
3.895704
 20
15.805900
 30
0.0
 10
3.647973
 20
15.821092
 30
0.0
 10
3.400622
 20
15.833719
 30
0.0
 10
3.153802
 20
15.843799
 30
0.0
 10
2.907665
 20
15.851352
 30
0.0
 10
2.662363
 20
15.856401
 30
0.0
 10
2.418050
 20
15.858969
 30
0.0
 10
2.174878
 20
15.859071
 30
0.0
 10
2.174877
 20
15.859080
 30
0.0
  0
LWPOLYLINE
  5
101
100
AcDbEntity
  8
0
 62
7
100
AcDbPolyline
 90
65
 70
0
 10
-1.917345
 20
13.539565
 30
0.0
 10
-1.772590
 20
13.532083
 30
0.0
 10
-1.631920
 20
13.510129
 30
0.0
 10
-1.496059
 20
13.474436
 30
0.0
 10
-1.365732
 20
13.425735
 30
0.0
 10
-1.241664
 20
13.364758
 30
0.0
 10
-1.124582
 20
13.292236
 30
0.0
 10
-1.015208
 20
13.208903
 30
0.0
 10
-0.914270
 20
13.115491
 30
0.0
 10
-0.822490
 20
13.012730
 30
0.0
 10
-0.740596
 20
12.901355
 30
0.0
 10
-0.669312
 20
12.782095
 30
0.0
 10
-0.609362
 20
12.655685
 30
0.0
 10
-0.561473
 20
12.522856
 30
0.0
 10
-0.526368
 20
12.384339
 30
0.0
 10
-0.504774
 20
12.240870
 30
0.0
 10
-0.497415
 20
12.093174
 30
0.0
 10
-0.504774
 20
11.946043
 30
0.0
 10
-0.526368
 20
11.803199
 30
0.0
 10
-0.561473
 20
11.665356
 30
0.0
 10
-0.609362
 20
11.533234
 30
0.0
 10
-0.669312
 20
11.407549
 30
0.0
 10
-0.740597
 20
11.289024
 30
0.0
 10
-0.822491
 20
11.178379
 30
0.0
 10
-0.914270
 20
11.076328
 30
0.0
 10
-1.015209
 20
10.983589
 30
0.0
 10
-1.124582
 20
10.900887
 30
0.0
 10
-1.241665
 20
10.828932
 30
0.0
 10
-1.365732
 20
10.768451
 30
0.0
 10
-1.496059
 20
10.720160
 30
0.0
 10
-1.631920
 20
10.684775
 30
0.0
 10
-1.772590
 20
10.663016
 30
0.0
 10
-1.917345
 20
10.655594
 30
0.0
 10
-2.062562
 20
10.663016
 30
0.0
 10
-2.203575
 20
10.684775
 30
0.0
 10
-2.339672
 20
10.720160
 30
0.0
 10
-2.470141
 20
10.768451
 30
0.0
 10
-2.594268
 20
10.828932
 30
0.0
 10
-2.711340
 20
10.900884
 30
0.0
 10
-2.820646
 20
10.983589
 30
0.0
 10
-2.921472
 20
11.076328
 30
0.0
 10
-3.013104
 20
11.178379
 30
0.0
 10
-3.094833
 20
11.289027
 30
0.0
 10
-3.165943
 20
11.407549
 30
0.0
 10
-3.225722
 20
11.533234
 30
0.0
 10
-3.273457
 20
11.665356
 30
0.0
 10
-3.308437
 20
11.803199
 30
0.0
 10
-3.329948
 20
11.946046
 30
0.0
 10
-3.337277
 20
12.093174
 30
0.0
 10
-3.329948
 20
12.240870
 30
0.0
 10
-3.308437
 20
12.384340
 30
0.0
 10
-3.273457
 20
12.522856
 30
0.0
 10
-3.225722
 20
12.655685
 30
0.0
 10
-3.165943
 20
12.782095
 30
0.0
 10
-3.094833
 20
12.901354
 30
0.0
 10
-3.013105
 20
13.012730
 30
0.0
 10
-2.921471
 20
13.115490
 30
0.0
 10
-2.820646
 20
13.208903
 30
0.0
 10
-2.711340
 20
13.292236
 30
0.0
 10
-2.594267
 20
13.364758
 30
0.0
 10
-2.470140
 20
13.425735
 30
0.0
 10
-2.339672
 20
13.474436
 30
0.0
 10
-2.203575
 20
13.510129
 30
0.0
 10
-2.062561
 20
13.532083
 30
0.0
 10
-1.917345
 20
13.539565
 30
0.0
  0
ENDSEC
  0
SECTION
  2
OBJECTS
  0
DICTIONARY
  5
C
330
0
100
AcDbDictionary
  3
ACAD_GROUP
350
D
  3
ACAD_MLINESTYLE
350
17
  0
DICTIONARY
  5
D
330
C
100
AcDbDictionary
  0
DICTIONARY
  5
1A
330
C
100
AcDbDictionary
  0
DICTIONARY
  5
17
330
C
100
AcDbDictionary
  3
STANDARD
350
18
  0
DICTIONARY
  5
19
330
C
100
AcDbDictionary
  0
ENDSEC
  0
EOF
