<?xml version="1.0" encoding="UTF-8" standalone="no"?>
<!-- Created with Inkscape (http://www.inkscape.org/) -->

<svg
   xmlns:dc="http://purl.org/dc/elements/1.1/"
   xmlns:cc="http://creativecommons.org/ns#"
   xmlns:rdf="http://www.w3.org/1999/02/22-rdf-syntax-ns#"
   xmlns:svg="http://www.w3.org/2000/svg"
   xmlns="http://www.w3.org/2000/svg"
   xmlns:xlink="http://www.w3.org/1999/xlink"
   xmlns:sodipodi="http://sodipodi.sourceforge.net/DTD/sodipodi-0.dtd"
   xmlns:inkscape="http://www.inkscape.org/namespaces/inkscape"
   version="1.0"
   width="388.84pt"
   height="115.02pt"
   id="svg2"
   sodipodi:version="0.32"
   inkscape:version="0.48.2 r9819"
   sodipodi:docname="python_logo_2_half.dxf">
  <metadata
     id="metadata2193">
    <rdf:RDF>
      <cc:Work
         rdf:about="">
        <dc:format>image/svg+xml</dc:format>
        <dc:type
           rdf:resource="http://purl.org/dc/dcmitype/StillImage" />
        <dc:title></dc:title>
      </cc:Work>
    </rdf:RDF>
  </metadata>
  <sodipodi:namedview
     inkscape:window-height="543"
     inkscape:window-width="1045"
     inkscape:pageshadow="2"
     inkscape:pageopacity="0.0"
     borderopacity="1.0"
     bordercolor="#666666"
     pagecolor="#ffffff"
     id="base"
     inkscape:zoom="1.4340089"
     inkscape:cx="161.92836"
     inkscape:cy="20.68858"
     inkscape:window-x="0"
     inkscape:window-y="26"
     inkscape:current-layer="svg2"
     showgrid="false"
     showguides="true"
     inkscape:guide-bbox="true"
     inkscape:window-maximized="0" />
  <defs
     id="defs4">
    <linearGradient
       id="linearGradient2795">
      <stop
         style="stop-color:#b8b8b8;stop-opacity:0.49803922"
         offset="0"
         id="stop2797" />
      <stop
         style="stop-color:#7f7f7f;stop-opacity:0"
         offset="1"
         id="stop2799" />
    </linearGradient>
    <linearGradient
       id="linearGradient2787">
      <stop
         style="stop-color:#7f7f7f;stop-opacity:0.5"
         offset="0"
         id="stop2789" />
      <stop
         style="stop-color:#7f7f7f;stop-opacity:0"
         offset="1"
         id="stop2791" />
    </linearGradient>
    <linearGradient
       id="linearGradient3676">
      <stop
         style="stop-color:#b2b2b2;stop-opacity:0.5"
         offset="0"
         id="stop3678" />
      <stop
         style="stop-color:#b3b3b3;stop-opacity:0"
         offset="1"
         id="stop3680" />
    </linearGradient>
    <linearGradient
       id="linearGradient3236">
      <stop
         style="stop-color:#f4f4f4;stop-opacity:1"
         offset="0"
         id="stop3244" />
      <stop
         style="stop-color:#ffffff;stop-opacity:1"
         offset="1"
         id="stop3240" />
    </linearGradient>
    <linearGradient
       id="linearGradient4671">
      <stop
         style="stop-color:#ffd43b;stop-opacity:1"
         offset="0"
         id="stop4673" />
      <stop
         style="stop-color:#ffe873;stop-opacity:1"
         offset="1"
         id="stop4675" />
    </linearGradient>
    <linearGradient
       id="linearGradient4689">
      <stop
         style="stop-color:#5a9fd4;stop-opacity:1"
         offset="0"
         id="stop4691" />
      <stop
         style="stop-color:#306998;stop-opacity:1"
         offset="1"
         id="stop4693" />
    </linearGradient>
    <linearGradient
       x1="224.23996"
       y1="144.75717"
       x2="-65.308502"
       y2="144.75717"
       id="linearGradient2987"
       xlink:href="#linearGradient4671"
       gradientUnits="userSpaceOnUse"
       gradientTransform="translate(100.2702,99.61116)" />
    <linearGradient
       x1="172.94208"
       y1="77.475983"
       x2="26.670298"
       y2="76.313133"
       id="linearGradient2990"
       xlink:href="#linearGradient4689"
       gradientUnits="userSpaceOnUse"
       gradientTransform="translate(100.2702,99.61116)" />
    <linearGradient
       x1="172.94208"
       y1="77.475983"
       x2="26.670298"
       y2="76.313133"
       id="linearGradient2587"
       xlink:href="#linearGradient4689"
       gradientUnits="userSpaceOnUse"
       gradientTransform="translate(100.2702,99.61116)" />
    <linearGradient
       x1="224.23996"
       y1="144.75717"
       x2="-65.308502"
       y2="144.75717"
       id="linearGradient2589"
       xlink:href="#linearGradient4671"
       gradientUnits="userSpaceOnUse"
       gradientTransform="translate(100.2702,99.61116)" />
    <linearGradient
       x1="172.94208"
       y1="77.475983"
       x2="26.670298"
       y2="76.313133"
       id="linearGradient2248"
       xlink:href="#linearGradient4689"
       gradientUnits="userSpaceOnUse"
       gradientTransform="translate(100.2702,99.61116)" />
    <linearGradient
       x1="224.23996"
       y1="144.75717"
       x2="-65.308502"
       y2="144.75717"
       id="linearGradient2250"
       xlink:href="#linearGradient4671"
       gradientUnits="userSpaceOnUse"
       gradientTransform="translate(100.2702,99.61116)" />
    <linearGradient
       x1="224.23996"
       y1="144.75717"
       x2="-65.308502"
       y2="144.75717"
       id="linearGradient2255"
       xlink:href="#linearGradient4671"
       gradientUnits="userSpaceOnUse"
       gradientTransform="matrix(0.562541,0,0,0.567972,-11.5974,-7.60954)" />
    <linearGradient
       x1="172.94208"
       y1="76.176224"
       x2="26.670298"
       y2="76.313133"
       id="linearGradient2258"
       xlink:href="#linearGradient4689"
       gradientUnits="userSpaceOnUse"
       gradientTransform="matrix(0.562541,0,0,0.567972,-11.5974,-7.60954)" />
    <radialGradient
       cx="61.518883"
       cy="132.28575"
       r="29.036913"
       fx="61.518883"
       fy="132.28575"
       id="radialGradient2801"
       xlink:href="#linearGradient2795"
       gradientUnits="userSpaceOnUse"
       gradientTransform="matrix(1,0,0,0.177966,0,108.7434)" />
    <linearGradient
       x1="150.96111"
       y1="192.35176"
       x2="112.03144"
       y2="137.27299"
       id="linearGradient1475"
       xlink:href="#linearGradient4671"
       gradientUnits="userSpaceOnUse"
       gradientTransform="matrix(0.562541,0,0,0.567972,-9.399749,-5.305317)" />
    <linearGradient
       x1="26.648937"
       y1="20.603781"
       x2="135.66525"
       y2="114.39767"
       id="linearGradient1478"
       xlink:href="#linearGradient4689"
       gradientUnits="userSpaceOnUse"
       gradientTransform="matrix(0.562541,0,0,0.567972,-9.399749,-5.305317)" />
    <radialGradient
       cx="61.518883"
       cy="132.28575"
       r="29.036913"
       fx="61.518883"
       fy="132.28575"
       id="radialGradient1480"
       xlink:href="#linearGradient2795"
       gradientUnits="userSpaceOnUse"
       gradientTransform="matrix(2.382716e-8,-0.296405,1.43676,4.683673e-7,-128.544,150.5202)" />
    <linearGradient
       x1="150.96111"
       y1="192.35176"
       x2="112.03144"
       y2="137.27299"
       id="linearGradient1475-6"
       xlink:href="#linearGradient4671-7"
       gradientUnits="userSpaceOnUse"
       gradientTransform="matrix(0.562541,0,0,0.567972,-62.203645,75.878118)" />
    <linearGradient
       id="linearGradient4671-7">
      <stop
         style="stop-color:#ffd43b;stop-opacity:1"
         offset="0"
         id="stop4673-8" />
      <stop
         style="stop-color:#ffe873;stop-opacity:1"
         offset="1"
         id="stop4675-9" />
    </linearGradient>
    <linearGradient
       x1="26.648937"
       y1="20.603781"
       x2="135.66525"
       y2="114.39767"
       id="linearGradient1478-5"
       xlink:href="#linearGradient4689-5"
       gradientUnits="userSpaceOnUse"
       gradientTransform="matrix(0.562541,0,0,0.567972,-9.399749,-5.305317)" />
    <linearGradient
       id="linearGradient4689-5">
      <stop
         style="stop-color:#5a9fd4;stop-opacity:1"
         offset="0"
         id="stop4691-1" />
      <stop
         style="stop-color:#306998;stop-opacity:1"
         offset="1"
         id="stop4693-0" />
    </linearGradient>
  </defs>
  <path
     inkscape:connector-curvature="0"
     id="path1948"
     style="fill:none;stroke:#000000;stroke-opacity:1"
     d="m 7.7062571,87.581408 c -1.1459132,0.0053 -2.2789286,0.03375 -3.394056,0.08404 -1.1151274,0.05029 -2.2123669,0.122453 -3.2867285,0.215245 -1.07436162,0.09279 -2.1258454,0.206216 -3.1494613,0.339037 -1.0236159,0.132822 -2.0193639,0.285041 -2.9822542,0.455424 -2.836554,0.501127 -5.0927221,1.139198 -6.8814111,1.935317 -1.78869,0.796118 -3.109902,1.750284 -4.076545,2.883603 -0.966642,1.133319 -1.578716,2.445791 -1.949129,3.958519 -0.370413,1.512729 -0.499165,3.225713 -0.499165,5.160063 l 0,2.55469 0,2.55468 0,2.55469 0,2.55469 6.703125,0 6.7031251,0 6.703125,0 6.703125,0 0,0.85156 0,0.85156 0,0.85157 0,0.85156 -6.703125,0 -6.703125,0 -6.7031251,0 -6.703125,0 -2.515625,0 -2.515625,0 -2.515625,0 -2.515625,0 c -1.948115,0 -3.835657,0.29273 -5.604504,0.87105 -1.768846,0.57832 -3.418997,1.44222 -4.892328,2.58456 -1.473331,1.14235 -2.769844,2.56313 -3.831413,4.2552 -1.061569,1.69207 -1.888196,3.65543 -2.421757,5.88294 -0.615455,2.55324 -1.083871,4.86649 -1.400129,7.06679 -0.316258,2.20029 -0.480358,4.28764 -0.487182,6.38908 -0.0068,2.10144 0.143627,4.21698 0.456473,6.47365 0.312846,2.25667 0.788085,4.65448 1.430838,7.32048 0.476483,1.98446 1.11832,3.8263 1.934813,5.4728 0.816492,1.6465 1.807639,3.09767 2.98274,4.30077 1.175101,1.2031 2.534156,2.15815 4.086465,2.81242 1.552308,0.65427 3.29787,1.00776 5.245984,1.00776 l 2.304688,0 2.304687,0 2.304688,0 2.304687,0 0,-3.0625 0,-3.0625 0,-3.0625 0,-3.0625 c 0,-2.21247 0.478572,-4.35973 1.338505,-6.33609 0.859933,-1.97636 2.101228,-3.78183 3.626674,-5.31075 1.525447,-1.52891 3.335045,-2.78126 5.331585,-3.65139 1.9965401,-0.87012 4.1800221,-1.35802 6.4532361,-1.35802 l 6.6953125,0 6.6953125,0 6.6953129,0 6.695312,0 c 1.863738,0 3.633497,-0.38364 5.239784,-1.07607 1.606287,-0.69243 3.049102,-1.69367 4.258949,-2.92886 1.209847,-1.2352 2.186726,-2.70436 2.861144,-4.33265 0.674417,-1.62829 1.046373,-3.41571 1.046373,-5.28742 l 0,-6.38281 0,-6.38281 0,-6.38282 0,-6.38281 c 0,-1.81658 -0.383124,-3.520174 -1.071501,-5.07268 C 33.321379,95.987474 32.327748,94.586053 31.106733,93.373807 29.885719,92.161561 28.437321,91.13849 26.83941,90.342685 25.241499,89.54688 23.494074,88.978341 21.675007,88.675158 20.52351,88.483478 19.361193,88.317947 18.193815,88.177804 17.026437,88.037661 15.853998,87.922906 14.682257,87.832776 13.510515,87.742646 12.339472,87.677141 11.174886,87.635501 10.0103,87.59386 8.8521703,87.576083 7.7062571,87.581408 z m -14.5,8.218755 c 0.6923868,0 1.3530332,0.143665 1.9545355,0.403325 0.6015022,0.25966 1.1438601,0.635314 1.5996696,1.099291 0.4558096,0.463978 0.8250708,1.016279 1.0803796,1.629233 0.2553089,0.612954 0.3966653,1.286558 0.3966653,1.993148 0,0.70409 -0.1413564,1.37449 -0.3966653,1.98404 -0.2553088,0.60956 -0.62457,1.15827 -1.0803796,1.61896 -0.4558095,0.4607 -0.9981674,0.83339 -1.5996696,1.0909 -0.6015022,0.25751 -1.2621487,0.39985 -1.9545355,0.39985 -0.694869,0 -1.3567566,-0.14234 -1.9587243,-0.39985 -0.6019676,-0.25751 -1.1440152,-0.6302 -1.5992038,-1.0909 -0.455189,-0.46069 -0.82352,-1.0094 -1.078053,-1.61896 -0.254533,-0.60955 -0.395269,-1.27996 -0.395269,-1.98404 0,-0.70659 0.140736,-1.380194 0.395269,-1.993148 0.254533,-0.612953 0.622864,-1.165254 1.078053,-1.629232 0.4551886,-0.463978 0.9972362,-0.839632 1.5992038,-1.099292 0.6019677,-0.25966 1.2638553,-0.403325 1.9587243,-0.403325 z"
     sodipodi:nodetypes="sssscsssscccccccccccccccccccsssscssscsssscccccccssssscccssssscccsssscsssssssssssssssssssss" />
</svg>
