<?xml version="1.0" encoding="UTF-8" standalone="no"?>
<!-- Created with Inkscape (http://www.inkscape.org/) -->

<svg
   xmlns:dc="http://purl.org/dc/elements/1.1/"
   xmlns:cc="http://creativecommons.org/ns#"
   xmlns:rdf="http://www.w3.org/1999/02/22-rdf-syntax-ns#"
   xmlns:svg="http://www.w3.org/2000/svg"
   xmlns="http://www.w3.org/2000/svg"
   xmlns:xlink="http://www.w3.org/1999/xlink"
   xmlns:sodipodi="http://sodipodi.sourceforge.net/DTD/sodipodi-0.dtd"
   xmlns:inkscape="http://www.inkscape.org/namespaces/inkscape"
   version="1.0"
   width="388.84pt"
   height="115.02pt"
   id="svg2"
   sodipodi:version="0.32"
   inkscape:version="0.48.2 r9819"
   sodipodi:docname="Python_logo_2.scad">
  <metadata
     id="metadata2193">
    <rdf:RDF>
      <cc:Work
         rdf:about="">
        <dc:format>image/svg+xml</dc:format>
        <dc:type
           rdf:resource="http://purl.org/dc/dcmitype/StillImage" />
        <dc:title></dc:title>
      </cc:Work>
    </rdf:RDF>
  </metadata>
  <sodipodi:namedview
     inkscape:window-height="543"
     inkscape:window-width="1045"
     inkscape:pageshadow="2"
     inkscape:pageopacity="0.0"
     borderopacity="1.0"
     bordercolor="#666666"
     pagecolor="#ffffff"
     id="base"
     inkscape:zoom="1.4340089"
     inkscape:cx="161.92836"
     inkscape:cy="20.68858"
     inkscape:window-x="0"
     inkscape:window-y="26"
     inkscape:current-layer="svg2"
     showgrid="false"
     showguides="true"
     inkscape:guide-bbox="true"
     inkscape:window-maximized="0" />
  <defs
     id="defs4">
    <linearGradient
       id="linearGradient2795">
      <stop
         style="stop-color:#b8b8b8;stop-opacity:0.49803922"
         offset="0"
         id="stop2797" />
      <stop
         style="stop-color:#7f7f7f;stop-opacity:0"
         offset="1"
         id="stop2799" />
    </linearGradient>
    <linearGradient
       id="linearGradient2787">
      <stop
         style="stop-color:#7f7f7f;stop-opacity:0.5"
         offset="0"
         id="stop2789" />
      <stop
         style="stop-color:#7f7f7f;stop-opacity:0"
         offset="1"
         id="stop2791" />
    </linearGradient>
    <linearGradient
       id="linearGradient3676">
      <stop
         style="stop-color:#b2b2b2;stop-opacity:0.5"
         offset="0"
         id="stop3678" />
      <stop
         style="stop-color:#b3b3b3;stop-opacity:0"
         offset="1"
         id="stop3680" />
    </linearGradient>
    <linearGradient
       id="linearGradient3236">
      <stop
         style="stop-color:#f4f4f4;stop-opacity:1"
         offset="0"
         id="stop3244" />
      <stop
         style="stop-color:#ffffff;stop-opacity:1"
         offset="1"
         id="stop3240" />
    </linearGradient>
    <linearGradient
       id="linearGradient4671">
      <stop
         style="stop-color:#ffd43b;stop-opacity:1"
         offset="0"
         id="stop4673" />
      <stop
         style="stop-color:#ffe873;stop-opacity:1"
         offset="1"
         id="stop4675" />
    </linearGradient>
    <linearGradient
       id="linearGradient4689">
      <stop
         style="stop-color:#5a9fd4;stop-opacity:1"
         offset="0"
         id="stop4691" />
      <stop
         style="stop-color:#306998;stop-opacity:1"
         offset="1"
         id="stop4693" />
    </linearGradient>
    <linearGradient
       x1="224.23996"
       y1="144.75717"
       x2="-65.308502"
       y2="144.75717"
       id="linearGradient2987"
       xlink:href="#linearGradient4671"
       gradientUnits="userSpaceOnUse"
       gradientTransform="translate(100.2702,99.61116)" />
    <linearGradient
       x1="172.94208"
       y1="77.475983"
       x2="26.670298"
       y2="76.313133"
       id="linearGradient2990"
       xlink:href="#linearGradient4689"
       gradientUnits="userSpaceOnUse"
       gradientTransform="translate(100.2702,99.61116)" />
    <linearGradient
       x1="172.94208"
       y1="77.475983"
       x2="26.670298"
       y2="76.313133"
       id="linearGradient2587"
       xlink:href="#linearGradient4689"
       gradientUnits="userSpaceOnUse"
       gradientTransform="translate(100.2702,99.61116)" />
    <linearGradient
       x1="224.23996"
       y1="144.75717"
       x2="-65.308502"
       y2="144.75717"
       id="linearGradient2589"
       xlink:href="#linearGradient4671"
       gradientUnits="userSpaceOnUse"
       gradientTransform="translate(100.2702,99.61116)" />
    <linearGradient
       x1="172.94208"
       y1="77.475983"
       x2="26.670298"
       y2="76.313133"
       id="linearGradient2248"
       xlink:href="#linearGradient4689"
       gradientUnits="userSpaceOnUse"
       gradientTransform="translate(100.2702,99.61116)" />
    <linearGradient
       x1="224.23996"
       y1="144.75717"
       x2="-65.308502"
       y2="144.75717"
       id="linearGradient2250"
       xlink:href="#linearGradient4671"
       gradientUnits="userSpaceOnUse"
       gradientTransform="translate(100.2702,99.61116)" />
    <linearGradient
       x1="224.23996"
       y1="144.75717"
       x2="-65.308502"
       y2="144.75717"
       id="linearGradient2255"
       xlink:href="#linearGradient4671"
       gradientUnits="userSpaceOnUse"
       gradientTransform="matrix(0.562541,0,0,0.567972,-11.5974,-7.60954)" />
    <linearGradient
       x1="172.94208"
       y1="76.176224"
       x2="26.670298"
       y2="76.313133"
       id="linearGradient2258"
       xlink:href="#linearGradient4689"
       gradientUnits="userSpaceOnUse"
       gradientTransform="matrix(0.562541,0,0,0.567972,-11.5974,-7.60954)" />
    <radialGradient
       cx="61.518883"
       cy="132.28575"
       r="29.036913"
       fx="61.518883"
       fy="132.28575"
       id="radialGradient2801"
       xlink:href="#linearGradient2795"
       gradientUnits="userSpaceOnUse"
       gradientTransform="matrix(1,0,0,0.177966,0,108.7434)" />
    <linearGradient
       x1="150.96111"
       y1="192.35176"
       x2="112.03144"
       y2="137.27299"
       id="linearGradient1475"
       xlink:href="#linearGradient4671"
       gradientUnits="userSpaceOnUse"
       gradientTransform="matrix(0.562541,0,0,0.567972,-9.399749,-5.305317)" />
    <linearGradient
       x1="26.648937"
       y1="20.603781"
       x2="135.66525"
       y2="114.39767"
       id="linearGradient1478"
       xlink:href="#linearGradient4689"
       gradientUnits="userSpaceOnUse"
       gradientTransform="matrix(0.562541,0,0,0.567972,-9.399749,-5.305317)" />
    <radialGradient
       cx="61.518883"
       cy="132.28575"
       r="29.036913"
       fx="61.518883"
       fy="132.28575"
       id="radialGradient1480"
       xlink:href="#linearGradient2795"
       gradientUnits="userSpaceOnUse"
       gradientTransform="matrix(2.382716e-8,-0.296405,1.43676,4.683673e-7,-128.544,150.5202)" />
    <linearGradient
       x1="150.96111"
       y1="192.35176"
       x2="112.03144"
       y2="137.27299"
       id="linearGradient1475-6"
       xlink:href="#linearGradient4671-7"
       gradientUnits="userSpaceOnUse"
       gradientTransform="matrix(0.562541,0,0,0.567972,-62.203645,75.878118)" />
    <linearGradient
       id="linearGradient4671-7">
      <stop
         style="stop-color:#ffd43b;stop-opacity:1"
         offset="0"
         id="stop4673-8" />
      <stop
         style="stop-color:#ffe873;stop-opacity:1"
         offset="1"
         id="stop4675-9" />
    </linearGradient>
    <linearGradient
       x1="26.648937"
       y1="20.603781"
       x2="135.66525"
       y2="114.39767"
       id="linearGradient1478-5"
       xlink:href="#linearGradient4689-5"
       gradientUnits="userSpaceOnUse"
       gradientTransform="matrix(0.562541,0,0,0.567972,-9.399749,-5.305317)" />
    <linearGradient
       id="linearGradient4689-5">
      <stop
         style="stop-color:#5a9fd4;stop-opacity:1"
         offset="0"
         id="stop4691-1" />
      <stop
         style="stop-color:#306998;stop-opacity:1"
         offset="1"
         id="stop4693-0" />
    </linearGradient>
  </defs>
  <path
     inkscape:connector-curvature="0"
     id="path1948"
     style="fill:none;stroke:#000000;stroke-opacity:1"
     d="m 7.7062571,87.581408 c -1.1459132,0.0053 -2.2789286,0.03375 -3.394056,0.08404 -1.1151274,0.05029 -2.2123669,0.122453 -3.2867285,0.215245 -1.07436162,0.09279 -2.1258454,0.206216 -3.1494613,0.339037 -1.0236159,0.132822 -2.0193639,0.285041 -2.9822542,0.455424 -2.836554,0.501127 -5.0927221,1.139198 -6.8814111,1.935317 -1.78869,0.796118 -3.109902,1.750284 -4.076545,2.883603 -0.966642,1.133319 -1.578716,2.445791 -1.949129,3.958519 -0.370413,1.512729 -0.499165,3.225713 -0.499165,5.160063 l 0,2.55469 0,2.55468 0,2.55469 0,2.55469 6.703125,0 6.7031251,0 6.703125,0 6.703125,0 0,0.85156 0,0.85156 0,0.85157 0,0.85156 -6.703125,0 -6.703125,0 -6.7031251,0 -6.703125,0 -2.515625,0 -2.515625,0 -2.515625,0 -2.515625,0 c -1.948115,0 -3.835657,0.29273 -5.604504,0.87105 -1.768846,0.57832 -3.418997,1.44222 -4.892328,2.58456 -1.473331,1.14235 -2.769844,2.56313 -3.831413,4.2552 -1.061569,1.69207 -1.888196,3.65543 -2.421757,5.88294 -0.615455,2.55324 -1.083871,4.86649 -1.400129,7.06679 -0.316258,2.20029 -0.480358,4.28764 -0.487182,6.38908 -0.0068,2.10144 0.143627,4.21698 0.456473,6.47365 0.312846,2.25667 0.788085,4.65448 1.430838,7.32048 0.476483,1.98446 1.11832,3.8263 1.934813,5.4728 0.816492,1.6465 1.807639,3.09767 2.98274,4.30077 1.175101,1.2031 2.534156,2.15815 4.086465,2.81242 1.552308,0.65427 3.29787,1.00776 5.245984,1.00776 l 2.304688,0 2.304687,0 2.304688,0 2.304687,0 0,-3.0625 0,-3.0625 0,-3.0625 0,-3.0625 c 0,-2.21247 0.478572,-4.35973 1.338505,-6.33609 0.859933,-1.97636 2.101228,-3.78183 3.626674,-5.31075 1.525447,-1.52891 3.335045,-2.78126 5.331585,-3.65139 1.9965401,-0.87012 4.1800221,-1.35802 6.4532361,-1.35802 l 6.6953125,0 6.6953125,0 6.6953129,0 6.695312,0 c 1.863738,0 3.633497,-0.38364 5.239784,-1.07607 1.606287,-0.69243 3.049102,-1.69367 4.258949,-2.92886 1.209847,-1.2352 2.186726,-2.70436 2.861144,-4.33265 0.674417,-1.62829 1.046373,-3.41571 1.046373,-5.28742 l 0,-6.38281 0,-6.38281 0,-6.38282 0,-6.38281 c 0,-1.81658 -0.383124,-3.520174 -1.071501,-5.07268 C 33.321379,95.987474 32.327748,94.586053 31.106733,93.373807 29.885719,92.161561 28.437321,91.13849 26.83941,90.342685 25.241499,89.54688 23.494074,88.978341 21.675007,88.675158 20.52351,88.483478 19.361193,88.317947 18.193815,88.177804 17.026437,88.037661 15.853998,87.922906 14.682257,87.832776 13.510515,87.742646 12.339472,87.677141 11.174886,87.635501 10.0103,87.59386 8.8521703,87.576083 7.7062571,87.581408 z m -14.5,8.218755 c 0.6923868,0 1.3530332,0.143665 1.9545355,0.403325 0.6015022,0.25966 1.1438601,0.635314 1.5996696,1.099291 0.4558096,0.463978 0.8250708,1.016279 1.0803796,1.629233 0.2553089,0.612954 0.3966653,1.286558 0.3966653,1.993148 0,0.70409 -0.1413564,1.37449 -0.3966653,1.98404 -0.2553088,0.60956 -0.62457,1.15827 -1.0803796,1.61896 -0.4558095,0.4607 -0.9981674,0.83339 -1.5996696,1.0909 -0.6015022,0.25751 -1.2621487,0.39985 -1.9545355,0.39985 -0.694869,0 -1.3567566,-0.14234 -1.9587243,-0.39985 -0.6019676,-0.25751 -1.1440152,-0.6302 -1.5992038,-1.0909 -0.455189,-0.46069 -0.82352,-1.0094 -1.078053,-1.61896 -0.254533,-0.60955 -0.395269,-1.27996 -0.395269,-1.98404 0,-0.70659 0.140736,-1.380194 0.395269,-1.993148 0.254533,-0.612953 0.622864,-1.165254 1.078053,-1.629232 0.4551886,-0.463978 0.9972362,-0.839632 1.5992038,-1.099292 0.6019677,-0.25966 1.2638553,-0.403325 1.9587243,-0.403325 z"
     sodipodi:nodetypes="sssscsssscccccccccccccccccccsssscssscsssscccccccssssscccssssscccsssscsssssssssssssssssssss" />
  <path
     inkscape:connector-curvature="0"
     id="path1950"
     style="fill:none;stroke:#000000;stroke-opacity:1"
     d="m 38.425007,116.23766 0,2.97656 0,2.97657 0,2.97656 0,2.97656 c 0,2.30769 -0.489118,4.52403 -1.362235,6.55048 -0.873117,2.02644 -2.130232,3.86298 -3.666226,5.41105 -1.535993,1.54808 -3.350865,2.8077 -5.339495,3.6803 -1.98863,0.87259 -4.151018,1.35817 -6.382044,1.35817 l -6.695312,0 -6.6953129,0 -6.6953125,0 -6.6953125,0 c -1.8339583,0 -3.588828,0.3924 -5.1895311,1.0958 -1.600703,0.7034 -3.047239,1.71779 -4.264531,2.96176 -1.217292,1.24396 -2.205339,2.71751 -2.889063,4.33922 -0.683724,1.62171 -1.063125,3.39159 -1.063125,5.22822 l 0,6.38281 0,6.38281 0,6.38282 0,6.38281 c 0,1.81658 0.394912,3.44615 1.098024,4.90124 0.703112,1.45508 1.714425,2.7357 2.947228,3.85438 1.232802,1.11869 2.687094,2.07545 4.276164,2.88283 1.5890702,0.80738 3.3129186,1.46538 5.0848341,1.98655 2.1218327,0.6239 4.22188893,1.12002 6.3371144,1.46721 2.1152254,0.34718 4.2456201,0.54544 6.4281298,0.57363 2.1825097,0.0282 4.4171347,-0.11369 6.7408207,-0.44679 2.323685,-0.33309 4.736432,-0.85739 7.275185,-1.59405 1.687539,-0.4886 3.369199,-1.10087 4.942449,-1.86534 1.573249,-0.76448 3.038089,-1.68115 4.291985,-2.77853 1.253897,-1.09739 2.296851,-2.3755 3.026331,-3.86285 0.729479,-1.48735 1.145485,-3.18393 1.145485,-5.11828 l 0,-2.55469 0,-2.55469 0,-2.55468 0,-2.55469 -6.695312,0 -6.695313,0 -6.695312,0 -6.6953129,0 0,-0.85156 0,-0.85157 0,-0.85156 0,-0.85156 6.6953129,0 6.695312,0 6.695313,0 6.695312,0 3.351564,0 3.351563,0 3.351563,0 3.351564,0 c 1.948115,0 3.590689,-0.33971 5.001077,-0.97676 1.410389,-0.63704 2.588593,-1.57141 3.60797,-2.76074 1.019377,-1.18932 1.879927,-2.63359 2.655007,-4.29043 0.77508,-1.65683 1.46469,-3.52624 2.142187,-5.56582 0.699833,-2.09972 1.217263,-4.17932 1.557873,-6.28596 0.340611,-2.10665 0.504403,-4.24035 0.496958,-6.44828 -0.0074,-2.20793 -0.186124,-4.49009 -0.530457,-6.89366 -0.344333,-2.40357 -0.854319,-4.92854 -1.524374,-7.6221 -0.481445,-1.93936 -1.072409,-3.75865 -1.809955,-5.39669 -0.737546,-1.63805 -1.621673,-3.09485 -2.689444,-4.30922 -1.067771,-1.21438 -2.319185,-2.18634 -3.791304,-2.85471 -1.47212,-0.66836 -3.164945,-1.03313 -5.115538,-1.03313 l -2.515626,0 -2.515626,0 -2.515626,0 z m -15.0625,64.65625 c 0.694869,0 1.356757,0.14234 1.958725,0.39985 0.601968,0.25752 1.144015,0.6302 1.599204,1.0909 0.455189,0.4607 0.823519,1.00941 1.078052,1.61896 0.254533,0.60956 0.395269,1.27996 0.395269,1.98404 0,0.70659 -0.140736,1.38019 -0.395269,1.99315 -0.254533,0.61295 -0.622864,1.16525 -1.078053,1.62923 -0.455189,0.46398 -0.997237,0.83963 -1.599204,1.09929 -0.601968,0.25966 -1.263855,0.40333 -1.958724,0.40333 -0.692387,0 -1.353034,-0.14367 -1.954537,-0.40333 -0.601502,-0.25966 -1.14386,-0.63531 -1.599669,-1.09929 -0.45581,-0.46398 -0.825071,-1.01628 -1.080379,-1.62923 -0.255309,-0.61296 -0.396665,-1.28656 -0.396665,-1.99315 0,-0.70408 0.141356,-1.37448 0.396664,-1.98404 0.255309,-0.60955 0.624569,-1.15826 1.080379,-1.61896 0.455809,-0.4607 0.998167,-0.83338 1.599669,-1.0909 0.601502,-0.25751 1.26215,-0.39985 1.954538,-0.39985 z"
     sodipodi:nodetypes="ccccssssscccssssscccsssscssscsssscccccccccccccccccccsssscssscssssccccsssssssssssssssss" />
</svg>
