999
DXF created by Inkscape
  0
SECTION
  2
HEADER
  9
$ACADVER
  1
AC1014
  9
$HANDSEED
  5
FFFF
  9
$MEASUREMENT
 70
     1
  0
ENDSEC
  0
SECTION
  2
TABLES
  0
TABLE
  2
VPORT
  5
8
330
0
100
AcDbSymbolTable
 70
     4
  0
VPORT
  5
2E
330
8
100
AcDbSymbolTableRecord
100
AcDbViewportTableRecord
  2
*ACTIVE
 70
     0
 10
0.0
 20
0.0
 11
1.0
 21
1.0
 12
210.0
 22
148.5
 13
0.0
 23
0.0
 14
10.0
 24
10.0
 15
10.0
 25
10.0
 16
0.0
 26
0.0
 36
1.0
 17
0.0
 27
0.0
 37
0.0
 40
341.0
 41
1.24
 42
50.0
 43
0.0
 44
0.0
 50
0.0
 51
0.0
 71
     0
 72
   100
 73
     1
 74
     3
 75
     0
 76
     0
 77
     0
 78
     0
  0
ENDTAB
  0
TABLE
  2
LTYPE
  5
5
330
0
100
AcDbSymbolTable
 70
     1
  0
LTYPE
  5
14
330
5
100
AcDbSymbolTableRecord
100
AcDbLinetypeTableRecord
  2
BYBLOCK
 70
     0
  3

 72
    65
 73
     0
 40
0.0
  0
LTYPE
  5
15
330
5
100
AcDbSymbolTableRecord
100
AcDbLinetypeTableRecord
  2
BYLAYER
 70
     0
  3

 72
    65
 73
     0
 40
0.0
  0
LTYPE
  5
16
330
5
100
AcDbSymbolTableRecord
100
AcDbLinetypeTableRecord
  2
CONTINUOUS
 70
     0
  3
Solid line
 72
    65
 73
     0
 40
0.0
  0
ENDTAB
  0
TABLE
  2
LAYER
  5
2
100
AcDbSymbolTable
 70
1
  0
LAYER
  5
50
100
AcDbSymbolTableRecord
100
AcDbLayerTableRecord
  2
0
 70
0
  6
CONTINUOUS
  0
ENDTAB
  0
TABLE
  2
STYLE
  5
3
330
0
100
AcDbSymbolTable
 70
     1
  0
STYLE
  5
11
330
3
100
AcDbSymbolTableRecord
100
AcDbTextStyleTableRecord
  2
STANDARD
 70
     0
 40
0.0
 41
1.0
 50
0.0
 71
     0
 42
2.5
  3
txt
  4

  0
ENDTAB
  0
TABLE
  2
VIEW
  5
6
330
0
100
AcDbSymbolTable
 70
     0
  0
ENDTAB
  0
TABLE
  2
UCS
  5
7
330
0
100
AcDbSymbolTable
 70
     0
  0
ENDTAB
  0
TABLE
  2
APPID
  5
9
330
0
100
AcDbSymbolTable
 70
     2
  0
APPID
  5
12
330
9
100
AcDbSymbolTableRecord
100
AcDbRegAppTableRecord
  2
ACAD
 70
     0
  0
ENDTAB
  0
TABLE
  2
DIMSTYLE
  5
A
330
0
100
AcDbSymbolTable
 70
     1
  0
DIMSTYLE
105
27
330
A
100
AcDbSymbolTableRecord
100
AcDbDimStyleTableRecord
  2
ISO-25
 70
     0
  3

  4

  5

  6

  7

 40
1.0
 41
2.5
 42
0.625
 43
3.75
 44
1.25
 45
0.0
 46
0.0
 47
0.0
 48
0.0
140
2.5
141
2.5
142
0.0
143
0.03937007874016
144
1.0
145
0.0
146
1.0
147
0.625
 71
     0
 72
     0
 73
     0
 74
     0
 75
     0
 76
     0
 77
     1
 78
     8
170
     0
171
     3
172
     1
173
     0
174
     0
175
     0
176
     0
177
     0
178
     0
270
     2
271
     2
272
     2
273
     2
274
     3
340
11
275
     0
280
     0
281
     0
282
     0
283
     0
284
     8
285
     0
286
     0
287
     3
288
     0
  0
ENDTAB
  0
TABLE
  2
BLOCK_RECORD
  5
1
330
0
100
AcDbSymbolTable
 70
     1
  0
BLOCK_RECORD
  5
1F
330
1
100
AcDbSymbolTableRecord
100
AcDbBlockTableRecord
  2
*MODEL_SPACE
  0
BLOCK_RECORD
  5
1B
330
1
100
AcDbSymbolTableRecord
100
AcDbBlockTableRecord
  2
*PAPER_SPACE
  0
ENDTAB
  0
ENDSEC
  0
SECTION
  2
BLOCKS
  0
BLOCK
  5
20
330
1F
100
AcDbEntity
  8
0
100
AcDbBlockBegin
  2
*MODEL_SPACE
 70
     0
 10
0.0
 20
0.0
 30
0.0
  3
*MODEL_SPACE
  1

  0
ENDBLK
  5
21
330
1F
100
AcDbEntity
  8
0
100
AcDbBlockEnd
  0
BLOCK
  5
1C
330
1B
100
AcDbEntity
 67
     1
  8
0
100
AcDbBlockBegin
  2
*PAPER_SPACE
  1

  0
ENDBLK
  5
1D
330
1B
100
AcDbEntity
 67
     1
  8
0
100
AcDbBlockEnd
  0
ENDSEC
  0
SECTION
  2
ENTITIES
  0
SPLINE
  5
100
100
AcDbEntity
  8
0
 62
7
100
AcDbSpline
 70
8
 71
3
 72
8
 73
4
 74
0
 40
0
 40
0
 40
0
 40
0
 40
1
 40
1
 40
1
 40
1
 10
2.174877
 20
15.859080
 30
0.0
 10
1.851475
 20
15.857585
 30
0.0
 10
1.531713
 20
15.849555
 30
0.0
 10
1.216999
 20
15.835362
 30
0.0
  0
SPLINE
  5
101
100
AcDbEntity
  8
0
 62
7
100
AcDbSpline
 70
8
 71
3
 72
8
 73
4
 74
0
 40
0
 40
0
 40
0
 40
0
 40
1
 40
1
 40
1
 40
1
 10
1.216999
 20
15.835362
 30
0.0
 10
0.902285
 20
15.821169
 30
0.0
 10
0.592620
 20
15.800803
 30
0.0
 10
0.289411
 20
15.774616
 30
0.0
  0
SPLINE
  5
102
100
AcDbEntity
  8
0
 62
7
100
AcDbSpline
 70
8
 71
3
 72
8
 73
4
 74
0
 40
0
 40
0
 40
0
 40
0
 40
1
 40
1
 40
1
 40
1
 10
0.289411
 20
15.774616
 30
0.0
 10
-0.013798
 20
15.748428
 30
0.0
 10
-0.310550
 20
15.716417
 30
0.0
 10
-0.599437
 20
15.678932
 30
0.0
  0
SPLINE
  5
103
100
AcDbEntity
  8
0
 62
7
100
AcDbSpline
 70
8
 71
3
 72
8
 73
4
 74
0
 40
0
 40
0
 40
0
 40
0
 40
1
 40
1
 40
1
 40
1
 10
-0.599437
 20
15.678932
 30
0.0
 10
-0.888324
 20
15.641446
 30
0.0
 10
-1.169346
 20
15.598487
 30
0.0
 10
-1.441095
 20
15.550401
 30
0.0
  0
SPLINE
  5
104
100
AcDbEntity
  8
0
 62
7
100
AcDbSpline
 70
8
 71
3
 72
8
 73
4
 74
0
 40
0
 40
0
 40
0
 40
0
 40
1
 40
1
 40
1
 40
1
 10
-1.441095
 20
15.550401
 30
0.0
 10
-2.241634
 20
15.408972
 30
0.0
 10
-2.878375
 20
15.228894
 30
0.0
 10
-3.383182
 20
15.004212
 30
0.0
  0
SPLINE
  5
105
100
AcDbEntity
  8
0
 62
7
100
AcDbSpline
 70
8
 71
3
 72
8
 73
4
 74
0
 40
0
 40
0
 40
0
 40
0
 40
1
 40
1
 40
1
 40
1
 10
-3.383182
 20
15.004212
 30
0.0
 10
-3.887990
 20
14.779529
 30
0.0
 10
-4.260866
 20
14.510242
 30
0.0
 10
-4.533674
 20
14.190395
 30
0.0
  0
SPLINE
  5
106
100
AcDbEntity
  8
0
 62
7
100
AcDbSpline
 70
8
 71
3
 72
8
 73
4
 74
0
 40
0
 40
0
 40
0
 40
0
 40
1
 40
1
 40
1
 40
1
 10
-4.533674
 20
14.190395
 30
0.0
 10
-4.806482
 20
13.870547
 30
0.0
 10
-4.979223
 20
13.500138
 30
0.0
 10
-5.083761
 20
13.073213
 30
0.0
  0
SPLINE
  5
107
100
AcDbEntity
  8
0
 62
7
100
AcDbSpline
 70
8
 71
3
 72
8
 73
4
 74
0
 40
0
 40
0
 40
0
 40
0
 40
1
 40
1
 40
1
 40
1
 10
-5.083761
 20
13.073213
 30
0.0
 10
-5.188300
 20
12.646287
 30
0.0
 10
-5.224637
 20
12.162845
 30
0.0
 10
-5.224637
 20
11.616928
 30
0.0
  0
SPLINE
  5
108
100
AcDbEntity
  8
0
 62
7
100
AcDbSpline
 70
8
 71
3
 72
8
 73
4
 74
0
 40
0
 40
0
 40
0
 40
0
 40
1
 40
1
 40
1
 40
1
 10
-8.064498
 20
7.771650
 30
0.0
 10
-8.614299
 20
7.771650
 30
0.0
 10
-9.147006
 20
7.689036
 30
0.0
 10
-9.646214
 20
7.525821
 30
0.0
  0
SPLINE
  5
109
100
AcDbEntity
  8
0
 62
7
100
AcDbSpline
 70
8
 71
3
 72
8
 73
4
 74
0
 40
0
 40
0
 40
0
 40
0
 40
1
 40
1
 40
1
 40
1
 10
-9.646214
 20
7.525821
 30
0.0
 10
-10.145421
 20
7.362606
 30
0.0
 10
-10.611131
 20
7.118794
 30
0.0
 10
-11.026937
 20
6.796400
 30
0.0
  0
SPLINE
  5
10a
100
AcDbEntity
  8
0
 62
7
100
AcDbSpline
 70
8
 71
3
 72
8
 73
4
 74
0
 40
0
 40
0
 40
0
 40
0
 40
1
 40
1
 40
1
 40
1
 10
-11.026937
 20
6.796400
 30
0.0
 10
-11.442744
 20
6.474004
 30
0.0
 10
-11.808649
 20
6.073028
 30
0.0
 10
-12.108247
 20
5.595488
 30
0.0
  0
SPLINE
  5
10b
100
AcDbEntity
  8
0
 62
7
100
AcDbSpline
 70
8
 71
3
 72
8
 73
4
 74
0
 40
0
 40
0
 40
0
 40
0
 40
1
 40
1
 40
1
 40
1
 10
-12.108247
 20
5.595488
 30
0.0
 10
-12.407846
 20
5.117949
 30
0.0
 10
-12.641138
 20
4.563845
 30
0.0
 10
-12.791721
 20
3.935192
 30
0.0
  0
SPLINE
  5
10c
100
AcDbEntity
  8
0
 62
7
100
AcDbSpline
 70
8
 71
3
 72
8
 73
4
 74
0
 40
0
 40
0
 40
0
 40
0
 40
1
 40
1
 40
1
 40
1
 10
-12.791721
 20
3.935192
 30
0.0
 10
-12.965416
 20
3.214611
 30
0.0
 10
-13.097613
 20
2.561760
 30
0.0
 10
-13.186868
 20
1.940787
 30
0.0
  0
SPLINE
  5
10d
100
AcDbEntity
  8
0
 62
7
100
AcDbSpline
 70
8
 71
3
 72
8
 73
4
 74
0
 40
0
 40
0
 40
0
 40
0
 40
1
 40
1
 40
1
 40
1
 10
-13.186868
 20
1.940787
 30
0.0
 10
-13.276123
 20
1.319816
 30
0.0
 10
-13.322436
 20
0.730720
 30
0.0
 10
-13.324362
 20
0.137647
 30
0.0
  0
SPLINE
  5
10e
100
AcDbEntity
  8
0
 62
7
100
AcDbSpline
 70
8
 71
3
 72
8
 73
4
 74
0
 40
0
 40
0
 40
0
 40
0
 40
1
 40
1
 40
1
 40
1
 10
-13.324362
 20
0.137647
 30
0.0
 10
-13.326281
 20
-0.455427
 30
0.0
 10
-13.283827
 20
-1.052479
 30
0.0
 10
-13.195535
 20
-1.689361
 30
0.0
  0
SPLINE
  5
10f
100
AcDbEntity
  8
0
 62
7
100
AcDbSpline
 70
8
 71
3
 72
8
 73
4
 74
0
 40
0
 40
0
 40
0
 40
0
 40
1
 40
1
 40
1
 40
1
 10
-13.195535
 20
-1.689361
 30
0.0
 10
-13.107243
 20
-2.326244
 30
0.0
 10
-12.973120
 20
-3.002959
 30
0.0
 10
-12.791721
 20
-3.755363
 30
0.0
  0
SPLINE
  5
110
100
AcDbEntity
  8
0
 62
7
100
AcDbSpline
 70
8
 71
3
 72
8
 73
4
 74
0
 40
0
 40
0
 40
0
 40
0
 40
1
 40
1
 40
1
 40
1
 10
-12.791721
 20
-3.755363
 30
0.0
 10
-12.657247
 20
-4.315422
 30
0.0
 10
-12.476106
 20
-4.835230
 30
0.0
 10
-12.245674
 20
-5.299909
 30
0.0
  0
SPLINE
  5
111
100
AcDbEntity
  8
0
 62
7
100
AcDbSpline
 70
8
 71
3
 72
8
 73
4
 74
0
 40
0
 40
0
 40
0
 40
0
 40
1
 40
1
 40
1
 40
1
 10
-12.245674
 20
-5.299909
 30
0.0
 10
-12.015241
 20
-5.764588
 30
0.0
 10
-11.735518
 20
-6.174141
 30
0.0
 10
-11.403878
 20
-6.513682
 30
0.0
  0
SPLINE
  5
112
100
AcDbEntity
  8
0
 62
7
100
AcDbSpline
 70
8
 71
3
 72
8
 73
4
 74
0
 40
0
 40
0
 40
0
 40
0
 40
1
 40
1
 40
1
 40
1
 10
-11.403878
 20
-6.513682
 30
0.0
 10
-11.072238
 20
-6.853224
 30
0.0
 10
-10.688683
 20
-7.122760
 30
0.0
 10
-10.250587
 20
-7.307410
 30
0.0
  0
SPLINE
  5
113
100
AcDbEntity
  8
0
 62
7
100
AcDbSpline
 70
8
 71
3
 72
8
 73
4
 74
0
 40
0
 40
0
 40
0
 40
0
 40
1
 40
1
 40
1
 40
1
 10
-10.250587
 20
-7.307410
 30
0.0
 10
-9.812491
 20
-7.492059
 30
0.0
 10
-9.319855
 20
-7.591822
 30
0.0
 10
-8.770054
 20
-7.591822
 30
0.0
  0
LWPOLYLINE
  5
114
100
AcDbEntity
  8
0
 62
7
100
AcDbPolyline
 90
21
 70
0
 10
-5.224637
 20
11.616928
 30
0.0
 10
-5.224637
 20
10.895938
 30
0.0
 10
-5.224637
 20
10.174950
 30
0.0
 10
-5.224637
 20
9.453960
 30
0.0
 10
-5.224637
 20
8.732970
 30
0.0
 10
-3.332866
 20
8.732970
 30
0.0
 10
-1.441095
 20
8.732970
 30
0.0
 10
0.450676
 20
8.732970
 30
0.0
 10
2.342446
 20
8.732970
 30
0.0
 10
2.342446
 20
8.492641
 30
0.0
 10
2.342446
 20
8.252312
 30
0.0
 10
2.342446
 20
8.011980
 30
0.0
 10
2.342446
 20
7.771650
 30
0.0
 10
0.450676
 20
7.771650
 30
0.0
 10
-1.441095
 20
7.771650
 30
0.0
 10
-3.332866
 20
7.771650
 30
0.0
 10
-5.224637
 20
7.771650
 30
0.0
 10
-5.934602
 20
7.771650
 30
0.0
 10
-6.644567
 20
7.771650
 30
0.0
 10
-7.354533
 20
7.771650
 30
0.0
 10
-8.064498
 20
7.771650
 30
0.0
  0
SPLINE
  5
115
100
AcDbEntity
  8
0
 62
7
100
AcDbSpline
 70
8
 71
3
 72
8
 73
4
 74
0
 40
0
 40
0
 40
0
 40
0
 40
1
 40
1
 40
1
 40
1
 10
-6.168317
 20
-4.134600
 30
0.0
 10
-6.168317
 20
-3.510191
 30
0.0
 10
-6.033254
 20
-2.904187
 30
0.0
 10
-5.790562
 20
-2.346414
 30
0.0
  0
SPLINE
  5
116
100
AcDbEntity
  8
0
 62
7
100
AcDbSpline
 70
8
 71
3
 72
8
 73
4
 74
0
 40
0
 40
0
 40
0
 40
0
 40
1
 40
1
 40
1
 40
1
 10
-5.790562
 20
-2.346414
 30
0.0
 10
-5.547869
 20
-1.788641
 30
0.0
 10
-5.197548
 20
-1.279098
 30
0.0
 10
-4.767034
 20
-0.847603
 30
0.0
  0
SPLINE
  5
117
100
AcDbEntity
  8
0
 62
7
100
AcDbSpline
 70
8
 71
3
 72
8
 73
4
 74
0
 40
0
 40
0
 40
0
 40
0
 40
1
 40
1
 40
1
 40
1
 10
-4.767034
 20
-0.847603
 30
0.0
 10
-4.336519
 20
-0.416110
 30
0.0
 10
-3.825810
 20
-0.062669
 30
0.0
 10
-3.262342
 20
0.182901
 30
0.0
  0
SPLINE
  5
118
100
AcDbEntity
  8
0
 62
7
100
AcDbSpline
 70
8
 71
3
 72
8
 73
4
 74
0
 40
0
 40
0
 40
0
 40
0
 40
1
 40
1
 40
1
 40
1
 10
-3.262342
 20
0.182901
 30
0.0
 10
-2.698874
 20
0.428468
 30
0.0
 10
-2.082647
 20
0.566164
 30
0.0
 10
-1.441095
 20
0.566164
 30
0.0
  0
LWPOLYLINE
  5
119
100
AcDbEntity
  8
0
 62
7
100
AcDbPolyline
 90
9
 70
0
 10
-8.770054
 20
-7.591822
 30
0.0
 10
-8.119619
 20
-7.591822
 30
0.0
 10
-7.469186
 20
-7.591822
 30
0.0
 10
-6.818751
 20
-7.591822
 30
0.0
 10
-6.168317
 20
-7.591822
 30
0.0
 10
-6.168317
 20
-6.727516
 30
0.0
 10
-6.168317
 20
-5.863211
 30
0.0
 10
-6.168317
 20
-4.998905
 30
0.0
 10
-6.168317
 20
-4.134600
 30
0.0
  0
SPLINE
  5
11a
100
AcDbEntity
  8
0
 62
7
100
AcDbSpline
 70
8
 71
3
 72
8
 73
4
 74
0
 40
0
 40
0
 40
0
 40
0
 40
1
 40
1
 40
1
 40
1
 10
6.117169
 20
0.566164
 30
0.0
 10
6.643157
 20
0.566164
 30
0.0
 10
7.142622
 20
0.674436
 30
0.0
 10
7.595952
 20
0.869855
 30
0.0
  0
SPLINE
  5
11b
100
AcDbEntity
  8
0
 62
7
100
AcDbSpline
 70
8
 71
3
 72
8
 73
4
 74
0
 40
0
 40
0
 40
0
 40
0
 40
1
 40
1
 40
1
 40
1
 10
7.595952
 20
0.869855
 30
0.0
 10
8.049282
 20
1.065274
 30
0.0
 10
8.456476
 20
1.347846
 30
0.0
 10
8.797922
 20
1.696445
 30
0.0
  0
SPLINE
  5
11c
100
AcDbEntity
  8
0
 62
7
100
AcDbSpline
 70
8
 71
3
 72
8
 73
4
 74
0
 40
0
 40
0
 40
0
 40
0
 40
1
 40
1
 40
1
 40
1
 10
8.797922
 20
1.696445
 30
0.0
 10
9.139368
 20
2.045045
 30
0.0
 10
9.415065
 20
2.459675
 30
0.0
 10
9.605401
 20
2.919215
 30
0.0
  0
SPLINE
  5
11d
100
AcDbEntity
  8
0
 62
7
100
AcDbSpline
 70
8
 71
3
 72
8
 73
4
 74
0
 40
0
 40
0
 40
0
 40
0
 40
1
 40
1
 40
1
 40
1
 10
9.605401
 20
2.919215
 30
0.0
 10
9.795736
 20
3.378754
 30
0.0
 10
9.900710
 20
3.883204
 30
0.0
 10
9.900710
 20
4.411442
 30
0.0
  0
LWPOLYLINE
  5
11e
100
AcDbEntity
  8
0
 62
7
100
AcDbPolyline
 90
5
 70
0
 10
-1.441095
 20
0.566164
 30
0.0
 10
0.448471
 20
0.566164
 30
0.0
 10
2.338037
 20
0.566164
 30
0.0
 10
4.227603
 20
0.566164
 30
0.0
 10
6.117169
 20
0.566164
 30
0.0
  0
SPLINE
  5
11f
100
AcDbEntity
  8
0
 62
7
100
AcDbSpline
 70
8
 71
3
 72
8
 73
4
 74
0
 40
0
 40
0
 40
0
 40
0
 40
1
 40
1
 40
1
 40
1
 10
9.900710
 20
11.616928
 30
0.0
 10
9.900710
 20
12.129607
 30
0.0
 10
9.792584
 20
12.610400
 30
0.0
 10
9.598309
 20
13.048551
 30
0.0
  0
SPLINE
  5
120
100
AcDbEntity
  8
0
 62
7
100
AcDbSpline
 70
8
 71
3
 72
8
 73
4
 74
0
 40
0
 40
0
 40
0
 40
0
 40
1
 40
1
 40
1
 40
1
 10
9.598309
 20
13.048551
 30
0.0
 10
9.404034
 20
13.486702
 30
0.0
 10
9.123609
 20
13.882214
 30
0.0
 10
8.779011
 20
14.224337
 30
0.0
  0
SPLINE
  5
121
100
AcDbEntity
  8
0
 62
7
100
AcDbSpline
 70
8
 71
3
 72
8
 73
4
 74
0
 40
0
 40
0
 40
0
 40
0
 40
1
 40
1
 40
1
 40
1
 10
8.779011
 20
14.224337
 30
0.0
 10
8.434414
 20
14.566459
 30
0.0
 10
8.025644
 20
14.855193
 30
0.0
 10
7.574678
 20
15.079787
 30
0.0
  0
SPLINE
  5
122
100
AcDbEntity
  8
0
 62
7
100
AcDbSpline
 70
8
 71
3
 72
8
 73
4
 74
0
 40
0
 40
0
 40
0
 40
0
 40
1
 40
1
 40
1
 40
1
 10
7.574678
 20
15.079787
 30
0.0
 10
7.123712
 20
15.304381
 30
0.0
 10
6.630550
 20
15.464835
 30
0.0
 10
6.117169
 20
15.550400
 30
0.0
  0
SPLINE
  5
123
100
AcDbEntity
  8
0
 62
7
100
AcDbSpline
 70
8
 71
3
 72
8
 73
4
 74
0
 40
0
 40
0
 40
0
 40
0
 40
1
 40
1
 40
1
 40
1
 10
6.117169
 20
15.550400
 30
0.0
 10
5.792191
 20
15.604496
 30
0.0
 10
5.464159
 20
15.651213
 30
0.0
 10
5.134699
 20
15.690764
 30
0.0
  0
SPLINE
  5
124
100
AcDbEntity
  8
0
 62
7
100
AcDbSpline
 70
8
 71
3
 72
8
 73
4
 74
0
 40
0
 40
0
 40
0
 40
0
 40
1
 40
1
 40
1
 40
1
 10
5.134699
 20
15.690764
 30
0.0
 10
4.805239
 20
15.730316
 30
0.0
 10
4.474351
 20
15.762702
 30
0.0
 10
4.143659
 20
15.788139
 30
0.0
  0
SPLINE
  5
125
100
AcDbEntity
  8
0
 62
7
100
AcDbSpline
 70
8
 71
3
 72
8
 73
4
 74
0
 40
0
 40
0
 40
0
 40
0
 40
1
 40
1
 40
1
 40
1
 10
4.143659
 20
15.788139
 30
0.0
 10
3.812968
 20
15.813575
 30
0.0
 10
3.482473
 20
15.832062
 30
0.0
 10
3.153801
 20
15.843814
 30
0.0
  0
SPLINE
  5
126
100
AcDbEntity
  8
0
 62
7
100
AcDbSpline
 70
8
 71
3
 72
8
 73
4
 74
0
 40
0
 40
0
 40
0
 40
0
 40
1
 40
1
 40
1
 40
1
 10
3.153801
 20
15.843814
 30
0.0
 10
2.825129
 20
15.855566
 30
0.0
 10
2.498279
 20
15.860583
 30
0.0
 10
2.174877
 20
15.859080
 30
0.0
  0
LWPOLYLINE
  5
127
100
AcDbEntity
  8
0
 62
7
100
AcDbPolyline
 90
5
 70
0
 10
9.900710
 20
4.411442
 30
0.0
 10
9.900710
 20
6.212813
 30
0.0
 10
9.900710
 20
8.014184
 30
0.0
 10
9.900710
 20
9.815557
 30
0.0
 10
9.900710
 20
11.616928
 30
0.0
  0
SPLINE
  5
128
100
AcDbEntity
  8
0
 62
7
100
AcDbSpline
 70
8
 71
3
 72
8
 73
4
 74
0
 40
0
 40
0
 40
0
 40
0
 40
1
 40
1
 40
1
 40
1
 10
-1.917345
 20
13.539565
 30
0.0
 10
-1.721938
 20
13.539565
 30
0.0
 10
-1.535489
 20
13.499020
 30
0.0
 10
-1.365732
 20
13.425738
 30
0.0
  0
SPLINE
  5
129
100
AcDbEntity
  8
0
 62
7
100
AcDbSpline
 70
8
 71
3
 72
8
 73
4
 74
0
 40
0
 40
0
 40
0
 40
0
 40
1
 40
1
 40
1
 40
1
 10
-1.365732
 20
13.425738
 30
0.0
 10
-1.195975
 20
13.352456
 30
0.0
 10
-1.042909
 20
13.246438
 30
0.0
 10
-0.914270
 20
13.115493
 30
0.0
  0
SPLINE
  5
12a
100
AcDbEntity
  8
0
 62
7
100
AcDbSpline
 70
8
 71
3
 72
8
 73
4
 74
0
 40
0
 40
0
 40
0
 40
0
 40
1
 40
1
 40
1
 40
1
 10
-0.914270
 20
13.115493
 30
0.0
 10
-0.785630
 20
12.984549
 30
0.0
 10
-0.681416
 20
12.828677
 30
0.0
 10
-0.609362
 20
12.655688
 30
0.0
  0
SPLINE
  5
12b
100
AcDbEntity
  8
0
 62
7
100
AcDbSpline
 70
8
 71
3
 72
8
 73
4
 74
0
 40
0
 40
0
 40
0
 40
0
 40
1
 40
1
 40
1
 40
1
 10
-0.609362
 20
12.655688
 30
0.0
 10
-0.537309
 20
12.482698
 30
0.0
 10
-0.497415
 20
12.292592
 30
0.0
 10
-0.497415
 20
12.093177
 30
0.0
  0
SPLINE
  5
12c
100
AcDbEntity
  8
0
 62
7
100
AcDbSpline
 70
8
 71
3
 72
8
 73
4
 74
0
 40
0
 40
0
 40
0
 40
0
 40
1
 40
1
 40
1
 40
1
 10
-0.497415
 20
12.093177
 30
0.0
 10
-0.497415
 20
11.894467
 30
0.0
 10
-0.537309
 20
11.705265
 30
0.0
 10
-0.609362
 20
11.533237
 30
0.0
  0
SPLINE
  5
12d
100
AcDbEntity
  8
0
 62
7
100
AcDbSpline
 70
8
 71
3
 72
8
 73
4
 74
0
 40
0
 40
0
 40
0
 40
0
 40
1
 40
1
 40
1
 40
1
 10
-0.609362
 20
11.533237
 30
0.0
 10
-0.681416
 20
11.361206
 30
0.0
 10
-0.785630
 20
11.206347
 30
0.0
 10
-0.914270
 20
11.076330
 30
0.0
  0
SPLINE
  5
12e
100
AcDbEntity
  8
0
 62
7
100
AcDbSpline
 70
8
 71
3
 72
8
 73
4
 74
0
 40
0
 40
0
 40
0
 40
0
 40
1
 40
1
 40
1
 40
1
 10
-0.914270
 20
11.076330
 30
0.0
 10
-1.042909
 20
10.946311
 30
0.0
 10
-1.195975
 20
10.841129
 30
0.0
 10
-1.365732
 20
10.768454
 30
0.0
  0
SPLINE
  5
12f
100
AcDbEntity
  8
0
 62
7
100
AcDbSpline
 70
8
 71
3
 72
8
 73
4
 74
0
 40
0
 40
0
 40
0
 40
0
 40
1
 40
1
 40
1
 40
1
 10
-1.365732
 20
10.768454
 30
0.0
 10
-1.535489
 20
10.695779
 30
0.0
 10
-1.721938
 20
10.655608
 30
0.0
 10
-1.917345
 20
10.655608
 30
0.0
  0
SPLINE
  5
130
100
AcDbEntity
  8
0
 62
7
100
AcDbSpline
 70
8
 71
3
 72
8
 73
4
 74
0
 40
0
 40
0
 40
0
 40
0
 40
1
 40
1
 40
1
 40
1
 10
-1.917345
 20
10.655608
 30
0.0
 10
-2.113453
 20
10.655608
 30
0.0
 10
-2.300252
 20
10.695779
 30
0.0
 10
-2.470141
 20
10.768454
 30
0.0
  0
SPLINE
  5
131
100
AcDbEntity
  8
0
 62
7
100
AcDbSpline
 70
8
 71
3
 72
8
 73
4
 74
0
 40
0
 40
0
 40
0
 40
0
 40
1
 40
1
 40
1
 40
1
 10
-2.470141
 20
10.768454
 30
0.0
 10
-2.640029
 20
10.841129
 30
0.0
 10
-2.793007
 20
10.946311
 30
0.0
 10
-2.921472
 20
11.076330
 30
0.0
  0
SPLINE
  5
132
100
AcDbEntity
  8
0
 62
7
100
AcDbSpline
 70
8
 71
3
 72
8
 73
4
 74
0
 40
0
 40
0
 40
0
 40
0
 40
1
 40
1
 40
1
 40
1
 10
-2.921472
 20
11.076330
 30
0.0
 10
-3.049936
 20
11.206347
 30
0.0
 10
-3.153887
 20
11.361206
 30
0.0
 10
-3.225722
 20
11.533237
 30
0.0
  0
SPLINE
  5
133
100
AcDbEntity
  8
0
 62
7
100
AcDbSpline
 70
8
 71
3
 72
8
 73
4
 74
0
 40
0
 40
0
 40
0
 40
0
 40
1
 40
1
 40
1
 40
1
 10
-3.225722
 20
11.533237
 30
0.0
 10
-3.297557
 20
11.705265
 30
0.0
 10
-3.337276
 20
11.894470
 30
0.0
 10
-3.337276
 20
12.093177
 30
0.0
  0
SPLINE
  5
134
100
AcDbEntity
  8
0
 62
7
100
AcDbSpline
 70
8
 71
3
 72
8
 73
4
 74
0
 40
0
 40
0
 40
0
 40
0
 40
1
 40
1
 40
1
 40
1
 10
-3.337276
 20
12.093177
 30
0.0
 10
-3.337276
 20
12.292592
 30
0.0
 10
-3.297557
 20
12.482698
 30
0.0
 10
-3.225722
 20
12.655688
 30
0.0
  0
SPLINE
  5
135
100
AcDbEntity
  8
0
 62
7
100
AcDbSpline
 70
8
 71
3
 72
8
 73
4
 74
0
 40
0
 40
0
 40
0
 40
0
 40
1
 40
1
 40
1
 40
1
 10
-3.225722
 20
12.655688
 30
0.0
 10
-3.153887
 20
12.828677
 30
0.0
 10
-3.049936
 20
12.984548
 30
0.0
 10
-2.921472
 20
13.115493
 30
0.0
  0
SPLINE
  5
136
100
AcDbEntity
  8
0
 62
7
100
AcDbSpline
 70
8
 71
3
 72
8
 73
4
 74
0
 40
0
 40
0
 40
0
 40
0
 40
1
 40
1
 40
1
 40
1
 10
-2.921472
 20
13.115493
 30
0.0
 10
-2.793007
 20
13.246438
 30
0.0
 10
-2.640029
 20
13.352456
 30
0.0
 10
-2.470141
 20
13.425738
 30
0.0
  0
SPLINE
  5
137
100
AcDbEntity
  8
0
 62
7
100
AcDbSpline
 70
8
 71
3
 72
8
 73
4
 74
0
 40
0
 40
0
 40
0
 40
0
 40
1
 40
1
 40
1
 40
1
 10
-2.470141
 20
13.425738
 30
0.0
 10
-2.300252
 20
13.499020
 30
0.0
 10
-2.113453
 20
13.539565
 30
0.0
 10
-1.917345
 20
13.539565
 30
0.0
  0
LWPOLYLINE
  5
138
100
AcDbEntity
  8
0
 62
7
100
AcDbPolyline
 90
2
 70
0
 10
2.174877
 20
15.859080
 30
0.0
 10
2.174877
 20
15.859080
 30
0.0
  0
LWPOLYLINE
  5
139
100
AcDbEntity
  8
0
 62
7
100
AcDbPolyline
 90
2
 70
0
 10
-1.917345
 20
13.539565
 30
0.0
 10
-1.917345
 20
13.539565
 30
0.0
  0
SPLINE
  5
13a
100
AcDbEntity
  8
0
 62
7
100
AcDbSpline
 70
8
 71
3
 72
8
 73
4
 74
0
 40
0
 40
0
 40
0
 40
0
 40
1
 40
1
 40
1
 40
1
 10
10.844391
 20
4.411441
 30
0.0
 10
10.844391
 20
3.760160
 30
0.0
 10
10.706351
 20
3.134659
 30
0.0
 10
10.459938
 20
2.562750
 30
0.0
  0
SPLINE
  5
13b
100
AcDbEntity
  8
0
 62
7
100
AcDbSpline
 70
8
 71
3
 72
8
 73
4
 74
0
 40
0
 40
0
 40
0
 40
0
 40
1
 40
1
 40
1
 40
1
 10
10.459938
 20
2.562750
 30
0.0
 10
10.213525
 20
1.990844
 30
0.0
 10
9.858739
 20
1.472531
 30
0.0
 10
9.425247
 20
1.035631
 30
0.0
  0
SPLINE
  5
13c
100
AcDbEntity
  8
0
 62
7
100
AcDbSpline
 70
8
 71
3
 72
8
 73
4
 74
0
 40
0
 40
0
 40
0
 40
0
 40
1
 40
1
 40
1
 40
1
 10
9.425247
 20
1.035631
 30
0.0
 10
8.991756
 20
0.598729
 30
0.0
 10
8.479559
 20
0.243236
 30
0.0
 10
7.918323
 20
-0.003031
 30
0.0
  0
SPLINE
  5
13d
100
AcDbEntity
  8
0
 62
7
100
AcDbSpline
 70
8
 71
3
 72
8
 73
4
 74
0
 40
0
 40
0
 40
0
 40
0
 40
1
 40
1
 40
1
 40
1
 10
7.918323
 20
-0.003031
 30
0.0
 10
7.357088
 20
-0.249295
 30
0.0
 10
6.746814
 20
-0.386337
 30
0.0
 10
6.117169
 20
-0.386337
 30
0.0
  0
LWPOLYLINE
  5
13e
100
AcDbEntity
  8
0
 62
7
100
AcDbPolyline
 90
5
 70
0
 10
10.844391
 20
7.771649
 30
0.0
 10
10.844391
 20
6.931598
 30
0.0
 10
10.844391
 20
6.091544
 30
0.0
 10
10.844391
 20
5.251492
 30
0.0
 10
10.844391
 20
4.411441
 30
0.0
  0
SPLINE
  5
13f
100
AcDbEntity
  8
0
 62
7
100
AcDbSpline
 70
8
 71
3
 72
8
 73
4
 74
0
 40
0
 40
0
 40
0
 40
0
 40
1
 40
1
 40
1
 40
1
 10
-1.441095
 20
-0.386337
 30
0.0
 10
-1.958679
 20
-0.386337
 30
0.0
 10
-2.453942
 20
-0.497081
 30
0.0
 10
-2.905696
 20
-0.695596
 30
0.0
  0
SPLINE
  5
140
100
AcDbEntity
  8
0
 62
7
100
AcDbSpline
 70
8
 71
3
 72
8
 73
4
 74
0
 40
0
 40
0
 40
0
 40
0
 40
1
 40
1
 40
1
 40
1
 10
-2.905696
 20
-0.695596
 30
0.0
 10
-3.357450
 20
-0.894111
 30
0.0
 10
-3.765695
 20
-1.180394
 30
0.0
 10
-4.109242
 20
-1.531470
 30
0.0
  0
SPLINE
  5
141
100
AcDbEntity
  8
0
 62
7
100
AcDbSpline
 70
8
 71
3
 72
8
 73
4
 74
0
 40
0
 40
0
 40
0
 40
0
 40
1
 40
1
 40
1
 40
1
 10
-4.109242
 20
-1.531470
 30
0.0
 10
-4.452788
 20
-1.882544
 30
0.0
 10
-4.731637
 20
-2.298412
 30
0.0
 10
-4.924599
 20
-2.756095
 30
0.0
  0
SPLINE
  5
142
100
AcDbEntity
  8
0
 62
7
100
AcDbSpline
 70
8
 71
3
 72
8
 73
4
 74
0
 40
0
 40
0
 40
0
 40
0
 40
1
 40
1
 40
1
 40
1
 10
-4.924599
 20
-2.756095
 30
0.0
 10
-5.117562
 20
-3.213777
 30
0.0
 10
-5.224637
 20
-3.713277
 30
0.0
 10
-5.224637
 20
-4.231615
 30
0.0
  0
LWPOLYLINE
  5
143
100
AcDbEntity
  8
0
 62
7
100
AcDbPolyline
 90
5
 70
0
 10
6.117169
 20
-0.386337
 30
0.0
 10
4.227603
 20
-0.386337
 30
0.0
 10
2.338037
 20
-0.386337
 30
0.0
 10
0.448471
 20
-0.386337
 30
0.0
 10
-1.441095
 20
-0.386337
 30
0.0
  0
SPLINE
  5
144
100
AcDbEntity
  8
0
 62
7
100
AcDbSpline
 70
8
 71
3
 72
8
 73
4
 74
0
 40
0
 40
0
 40
0
 40
0
 40
1
 40
1
 40
1
 40
1
 10
-5.224637
 20
-11.437101
 30
0.0
 10
-5.224637
 20
-11.949780
 30
0.0
 10
-5.113184
 20
-12.409681
 30
0.0
 10
-4.914750
 20
-12.820340
 30
0.0
  0
SPLINE
  5
145
100
AcDbEntity
  8
0
 62
7
100
AcDbSpline
 70
8
 71
3
 72
8
 73
4
 74
0
 40
0
 40
0
 40
0
 40
0
 40
1
 40
1
 40
1
 40
1
 10
-4.914750
 20
-12.820340
 30
0.0
 10
-4.716316
 20
-13.230995
 30
0.0
 10
-4.430901
 20
-13.592415
 30
0.0
 10
-4.082977
 20
-13.908131
 30
0.0
  0
SPLINE
  5
146
100
AcDbEntity
  8
0
 62
7
100
AcDbSpline
 70
8
 71
3
 72
8
 73
4
 74
0
 40
0
 40
0
 40
0
 40
0
 40
1
 40
1
 40
1
 40
1
 10
-4.082977
 20
-13.908131
 30
0.0
 10
-3.735053
 20
-14.223850
 30
0.0
 10
-3.324619
 20
-14.493869
 30
0.0
 10
-2.876148
 20
-14.721730
 30
0.0
  0
SPLINE
  5
147
100
AcDbEntity
  8
0
 62
7
100
AcDbSpline
 70
8
 71
3
 72
8
 73
4
 74
0
 40
0
 40
0
 40
0
 40
0
 40
1
 40
1
 40
1
 40
1
 10
-2.876148
 20
-14.721730
 30
0.0
 10
-2.427677
 20
-14.949591
 30
0.0
 10
-1.941169
 20
-15.135293
 30
0.0
 10
-1.441095
 20
-15.282378
 30
0.0
  0
SPLINE
  5
148
100
AcDbEntity
  8
0
 62
7
100
AcDbSpline
 70
8
 71
3
 72
8
 73
4
 74
0
 40
0
 40
0
 40
0
 40
0
 40
1
 40
1
 40
1
 40
1
 10
-1.441095
 20
-15.282378
 30
0.0
 10
-0.842267
 20
-15.458457
 30
0.0
 10
-0.249584
 20
-15.598473
 30
0.0
 10
0.347379
 20
-15.696458
 30
0.0
  0
SPLINE
  5
149
100
AcDbEntity
  8
0
 62
7
100
AcDbSpline
 70
8
 71
3
 72
8
 73
4
 74
0
 40
0
 40
0
 40
0
 40
0
 40
1
 40
1
 40
1
 40
1
 10
0.347379
 20
-15.696458
 30
0.0
 10
0.944343
 20
-15.794440
 30
0.0
 10
1.545588
 20
-15.850393
 30
0.0
 10
2.161540
 20
-15.858349
 30
0.0
  0
SPLINE
  5
14a
100
AcDbEntity
  8
0
 62
7
100
AcDbSpline
 70
8
 71
3
 72
8
 73
4
 74
0
 40
0
 40
0
 40
0
 40
0
 40
1
 40
1
 40
1
 40
1
 10
2.161540
 20
-15.858349
 30
0.0
 10
2.777493
 20
-15.866308
 30
0.0
 10
3.408154
 20
-15.826263
 30
0.0
 10
4.063950
 20
-15.732255
 30
0.0
  0
SPLINE
  5
14b
100
AcDbEntity
  8
0
 62
7
100
AcDbSpline
 70
8
 71
3
 72
8
 73
4
 74
0
 40
0
 40
0
 40
0
 40
0
 40
1
 40
1
 40
1
 40
1
 10
4.063950
 20
-15.732255
 30
0.0
 10
4.719745
 20
-15.638249
 30
0.0
 10
5.400676
 20
-15.490280
 30
0.0
 10
6.117169
 20
-15.282378
 30
0.0
  0
SPLINE
  5
14c
100
AcDbEntity
  8
0
 62
7
100
AcDbSpline
 70
8
 71
3
 72
8
 73
4
 74
0
 40
0
 40
0
 40
0
 40
0
 40
1
 40
1
 40
1
 40
1
 10
6.117169
 20
-15.282378
 30
0.0
 10
6.593430
 20
-15.144485
 30
0.0
 10
7.068031
 20
-14.971689
 30
0.0
 10
7.512038
 20
-14.755938
 30
0.0
  0
SPLINE
  5
14d
100
AcDbEntity
  8
0
 62
7
100
AcDbSpline
 70
8
 71
3
 72
8
 73
4
 74
0
 40
0
 40
0
 40
0
 40
0
 40
1
 40
1
 40
1
 40
1
 10
7.512038
 20
-14.755938
 30
0.0
 10
7.956043
 20
-14.540185
 30
0.0
 10
8.369454
 20
-14.281480
 30
0.0
 10
8.723331
 20
-13.971775
 30
0.0
  0
SPLINE
  5
14e
100
AcDbEntity
  8
0
 62
7
100
AcDbSpline
 70
8
 71
3
 72
8
 73
4
 74
0
 40
0
 40
0
 40
0
 40
0
 40
1
 40
1
 40
1
 40
1
 10
8.723331
 20
-13.971775
 30
0.0
 10
9.077209
 20
-13.662067
 30
0.0
 10
9.371554
 20
-13.301356
 30
0.0
 10
9.577429
 20
-12.881593
 30
0.0
  0
SPLINE
  5
14f
100
AcDbEntity
  8
0
 62
7
100
AcDbSpline
 70
8
 71
3
 72
8
 73
4
 74
0
 40
0
 40
0
 40
0
 40
0
 40
1
 40
1
 40
1
 40
1
 10
9.577429
 20
-12.881593
 30
0.0
 10
9.783304
 20
-12.461830
 30
0.0
 10
9.900710
 20
-11.983017
 30
0.0
 10
9.900710
 20
-11.437101
 30
0.0
  0
LWPOLYLINE
  5
150
100
AcDbEntity
  8
0
 62
7
100
AcDbPolyline
 90
5
 70
0
 10
-5.224637
 20
-4.231615
 30
0.0
 10
-5.224637
 20
-6.032985
 30
0.0
 10
-5.224637
 20
-7.834356
 30
0.0
 10
-5.224637
 20
-9.635730
 30
0.0
 10
-5.224637
 20
-11.437101
 30
0.0
  0
SPLINE
  5
151
100
AcDbEntity
  8
0
 62
7
100
AcDbSpline
 70
8
 71
3
 72
8
 73
4
 74
0
 40
0
 40
0
 40
0
 40
0
 40
1
 40
1
 40
1
 40
1
 10
13.684253
 20
-7.591823
 30
0.0
 10
14.234054
 20
-7.591823
 30
0.0
 10
14.697625
 20
-7.495949
 30
0.0
 10
15.095668
 20
-7.316160
 30
0.0
  0
SPLINE
  5
152
100
AcDbEntity
  8
0
 62
7
100
AcDbSpline
 70
8
 71
3
 72
8
 73
4
 74
0
 40
0
 40
0
 40
0
 40
0
 40
1
 40
1
 40
1
 40
1
 10
15.095668
 20
-7.316160
 30
0.0
 10
15.493711
 20
-7.136373
 30
0.0
 10
15.826227
 20
-6.872673
 30
0.0
 10
16.113917
 20
-6.537017
 30
0.0
  0
SPLINE
  5
153
100
AcDbEntity
  8
0
 62
7
100
AcDbSpline
 70
8
 71
3
 72
8
 73
4
 74
0
 40
0
 40
0
 40
0
 40
0
 40
1
 40
1
 40
1
 40
1
 10
16.113917
 20
-6.537017
 30
0.0
 10
16.401608
 20
-6.201365
 30
0.0
 10
16.644475
 20
-5.793760
 30
0.0
 10
16.863219
 20
-5.326163
 30
0.0
  0
SPLINE
  5
154
100
AcDbEntity
  8
0
 62
7
100
AcDbSpline
 70
8
 71
3
 72
8
 73
4
 74
0
 40
0
 40
0
 40
0
 40
0
 40
1
 40
1
 40
1
 40
1
 10
16.863219
 20
-5.326163
 30
0.0
 10
17.081964
 20
-4.858568
 30
0.0
 10
17.276588
 20
-4.330979
 30
0.0
 10
17.467792
 20
-3.755365
 30
0.0
  0
SPLINE
  5
155
100
AcDbEntity
  8
0
 62
7
100
AcDbSpline
 70
8
 71
3
 72
8
 73
4
 74
0
 40
0
 40
0
 40
0
 40
0
 40
1
 40
1
 40
1
 40
1
 10
17.467792
 20
-3.755365
 30
0.0
 10
17.665301
 20
-3.162777
 30
0.0
 10
17.811331
 20
-2.575868
 30
0.0
 10
17.907459
 20
-1.981327
 30
0.0
  0
SPLINE
  5
156
100
AcDbEntity
  8
0
 62
7
100
AcDbSpline
 70
8
 71
3
 72
8
 73
4
 74
0
 40
0
 40
0
 40
0
 40
0
 40
1
 40
1
 40
1
 40
1
 10
17.907459
 20
-1.981327
 30
0.0
 10
18.003587
 20
-1.386784
 30
0.0
 10
18.049812
 20
-0.784606
 30
0.0
 10
18.047711
 20
-0.161479
 30
0.0
  0
SPLINE
  5
157
100
AcDbEntity
  8
0
 62
7
100
AcDbSpline
 70
8
 71
3
 72
8
 73
4
 74
0
 40
0
 40
0
 40
0
 40
0
 40
1
 40
1
 40
1
 40
1
 10
18.047711
 20
-0.161479
 30
0.0
 10
18.045623
 20
0.461648
 30
0.0
 10
17.995183
 20
1.105724
 30
0.0
 10
17.898004
 20
1.784065
 30
0.0
  0
SPLINE
  5
158
100
AcDbEntity
  8
0
 62
7
100
AcDbSpline
 70
8
 71
3
 72
8
 73
4
 74
0
 40
0
 40
0
 40
0
 40
0
 40
1
 40
1
 40
1
 40
1
 10
17.898004
 20
1.784065
 30
0.0
 10
17.800826
 20
2.462406
 30
0.0
 10
17.656897
 20
3.175008
 30
0.0
 10
17.467792
 20
3.935191
 30
0.0
  0
SPLINE
  5
159
100
AcDbEntity
  8
0
 62
7
100
AcDbSpline
 70
8
 71
3
 72
8
 73
4
 74
0
 40
0
 40
0
 40
0
 40
0
 40
1
 40
1
 40
1
 40
1
 10
17.467792
 20
3.935191
 30
0.0
 10
17.331918
 20
4.482521
 30
0.0
 10
17.165135
 20
4.995966
 30
0.0
 10
16.956983
 20
5.458257
 30
0.0
  0
SPLINE
  5
15a
100
AcDbEntity
  8
0
 62
7
100
AcDbSpline
 70
8
 71
3
 72
8
 73
4
 74
0
 40
0
 40
0
 40
0
 40
0
 40
1
 40
1
 40
1
 40
1
 10
16.956983
 20
5.458257
 30
0.0
 10
16.748831
 20
5.920551
 30
0.0
 10
16.499311
 20
6.331692
 30
0.0
 10
16.197962
 20
6.674414
 30
0.0
  0
SPLINE
  5
15b
100
AcDbEntity
  8
0
 62
7
100
AcDbSpline
 70
8
 71
3
 72
8
 73
4
 74
0
 40
0
 40
0
 40
0
 40
0
 40
1
 40
1
 40
1
 40
1
 10
16.197962
 20
6.674414
 30
0.0
 10
15.896613
 20
7.017139
 30
0.0
 10
15.543436
 20
7.291448
 30
0.0
 10
15.127972
 20
7.480077
 30
0.0
  0
SPLINE
  5
15c
100
AcDbEntity
  8
0
 62
7
100
AcDbSpline
 70
8
 71
3
 72
8
 73
4
 74
0
 40
0
 40
0
 40
0
 40
0
 40
1
 40
1
 40
1
 40
1
 10
15.127972
 20
7.480077
 30
0.0
 10
14.712507
 20
7.668703
 30
0.0
 10
14.234754
 20
7.771649
 30
0.0
 10
13.684253
 20
7.771649
 30
0.0
  0
LWPOLYLINE
  5
15d
100
AcDbEntity
  8
0
 62
7
100
AcDbPolyline
 90
21
 70
0
 10
9.900710
 20
-11.437101
 30
0.0
 10
9.900710
 20
-10.716110
 30
0.0
 10
9.900710
 20
-9.995120
 30
0.0
 10
9.900710
 20
-9.274133
 30
0.0
 10
9.900710
 20
-8.553142
 30
0.0
 10
8.011144
 20
-8.553142
 30
0.0
 10
6.121578
 20
-8.553142
 30
0.0
 10
4.232013
 20
-8.553142
 30
0.0
 10
2.342446
 20
-8.553142
 30
0.0
 10
2.342446
 20
-8.312813
 30
0.0
 10
2.342446
 20
-8.072481
 30
0.0
 10
2.342446
 20
-7.832152
 30
0.0
 10
2.342446
 20
-7.591823
 30
0.0
 10
4.232013
 20
-7.591823
 30
0.0
 10
6.121578
 20
-7.591823
 30
0.0
 10
8.011144
 20
-7.591823
 30
0.0
 10
9.900710
 20
-7.591823
 30
0.0
 10
10.846596
 20
-7.591823
 30
0.0
 10
11.792482
 20
-7.591823
 30
0.0
 10
12.738367
 20
-7.591823
 30
0.0
 10
13.684253
 20
-7.591823
 30
0.0
  0
SPLINE
  5
15e
100
AcDbEntity
  8
0
 62
7
100
AcDbSpline
 70
8
 71
3
 72
8
 73
4
 74
0
 40
0
 40
0
 40
0
 40
0
 40
1
 40
1
 40
1
 40
1
 10
6.593419
 20
-10.475781
 30
0.0
 10
6.789526
 20
-10.475781
 30
0.0
 10
6.976326
 20
-10.515953
 30
0.0
 10
7.146214
 20
-10.588628
 30
0.0
  0
SPLINE
  5
15f
100
AcDbEntity
  8
0
 62
7
100
AcDbSpline
 70
8
 71
3
 72
8
 73
4
 74
0
 40
0
 40
0
 40
0
 40
0
 40
1
 40
1
 40
1
 40
1
 10
7.146214
 20
-10.588628
 30
0.0
 10
7.316103
 20
-10.661306
 30
0.0
 10
7.469081
 20
-10.766484
 30
0.0
 10
7.597545
 20
-10.896504
 30
0.0
  0
SPLINE
  5
160
100
AcDbEntity
  8
0
 62
7
100
AcDbSpline
 70
8
 71
3
 72
8
 73
4
 74
0
 40
0
 40
0
 40
0
 40
0
 40
1
 40
1
 40
1
 40
1
 10
7.597545
 20
-10.896504
 30
0.0
 10
7.726010
 20
-11.026524
 30
0.0
 10
7.829961
 20
-11.181382
 30
0.0
 10
7.901796
 20
-11.353411
 30
0.0
  0
SPLINE
  5
161
100
AcDbEntity
  8
0
 62
7
100
AcDbSpline
 70
8
 71
3
 72
8
 73
4
 74
0
 40
0
 40
0
 40
0
 40
0
 40
1
 40
1
 40
1
 40
1
 10
7.901796
 20
-11.353411
 30
0.0
 10
7.973630
 20
-11.525442
 30
0.0
 10
8.013349
 20
-11.714644
 30
0.0
 10
8.013349
 20
-11.913351
 30
0.0
  0
SPLINE
  5
162
100
AcDbEntity
  8
0
 62
7
100
AcDbSpline
 70
8
 71
3
 72
8
 73
4
 74
0
 40
0
 40
0
 40
0
 40
0
 40
1
 40
1
 40
1
 40
1
 10
8.013349
 20
-11.913351
 30
0.0
 10
8.013349
 20
-12.112766
 30
0.0
 10
7.973630
 20
-12.302871
 30
0.0
 10
7.901796
 20
-12.475862
 30
0.0
  0
SPLINE
  5
163
100
AcDbEntity
  8
0
 62
7
100
AcDbSpline
 70
8
 71
3
 72
8
 73
4
 74
0
 40
0
 40
0
 40
0
 40
0
 40
1
 40
1
 40
1
 40
1
 10
7.901796
 20
-12.475862
 30
0.0
 10
7.829961
 20
-12.648850
 30
0.0
 10
7.726009
 20
-12.804721
 30
0.0
 10
7.597545
 20
-12.935667
 30
0.0
  0
SPLINE
  5
164
100
AcDbEntity
  8
0
 62
7
100
AcDbSpline
 70
8
 71
3
 72
8
 73
4
 74
0
 40
0
 40
0
 40
0
 40
0
 40
1
 40
1
 40
1
 40
1
 10
7.597545
 20
-12.935667
 30
0.0
 10
7.469081
 20
-13.066612
 30
0.0
 10
7.316103
 20
-13.172629
 30
0.0
 10
7.146214
 20
-13.245911
 30
0.0
  0
SPLINE
  5
165
100
AcDbEntity
  8
0
 62
7
100
AcDbSpline
 70
8
 71
3
 72
8
 73
4
 74
0
 40
0
 40
0
 40
0
 40
0
 40
1
 40
1
 40
1
 40
1
 10
7.146214
 20
-13.245911
 30
0.0
 10
6.976325
 20
-13.319193
 30
0.0
 10
6.789526
 20
-13.359740
 30
0.0
 10
6.593419
 20
-13.359740
 30
0.0
  0
SPLINE
  5
166
100
AcDbEntity
  8
0
 62
7
100
AcDbSpline
 70
8
 71
3
 72
8
 73
4
 74
0
 40
0
 40
0
 40
0
 40
0
 40
1
 40
1
 40
1
 40
1
 10
6.593419
 20
-13.359740
 30
0.0
 10
6.398012
 20
-13.359740
 30
0.0
 10
6.211562
 20
-13.319193
 30
0.0
 10
6.041805
 20
-13.245911
 30
0.0
  0
SPLINE
  5
167
100
AcDbEntity
  8
0
 62
7
100
AcDbSpline
 70
8
 71
3
 72
8
 73
4
 74
0
 40
0
 40
0
 40
0
 40
0
 40
1
 40
1
 40
1
 40
1
 10
6.041805
 20
-13.245911
 30
0.0
 10
5.872048
 20
-13.172629
 30
0.0
 10
5.718982
 20
-13.066612
 30
0.0
 10
5.590343
 20
-12.935667
 30
0.0
  0
SPLINE
  5
168
100
AcDbEntity
  8
0
 62
7
100
AcDbSpline
 70
8
 71
3
 72
8
 73
4
 74
0
 40
0
 40
0
 40
0
 40
0
 40
1
 40
1
 40
1
 40
1
 10
5.590343
 20
-12.935667
 30
0.0
 10
5.461703
 20
-12.804721
 30
0.0
 10
5.357489
 20
-12.648850
 30
0.0
 10
5.285436
 20
-12.475862
 30
0.0
  0
SPLINE
  5
169
100
AcDbEntity
  8
0
 62
7
100
AcDbSpline
 70
8
 71
3
 72
8
 73
4
 74
0
 40
0
 40
0
 40
0
 40
0
 40
1
 40
1
 40
1
 40
1
 10
5.285436
 20
-12.475862
 30
0.0
 10
5.213382
 20
-12.302871
 30
0.0
 10
5.173488
 20
-12.112766
 30
0.0
 10
5.173488
 20
-11.913351
 30
0.0
  0
SPLINE
  5
16a
100
AcDbEntity
  8
0
 62
7
100
AcDbSpline
 70
8
 71
3
 72
8
 73
4
 74
0
 40
0
 40
0
 40
0
 40
0
 40
1
 40
1
 40
1
 40
1
 10
5.173488
 20
-11.913351
 30
0.0
 10
5.173488
 20
-11.714644
 30
0.0
 10
5.213382
 20
-11.525442
 30
0.0
 10
5.285435
 20
-11.353411
 30
0.0
  0
SPLINE
  5
16b
100
AcDbEntity
  8
0
 62
7
100
AcDbSpline
 70
8
 71
3
 72
8
 73
4
 74
0
 40
0
 40
0
 40
0
 40
0
 40
1
 40
1
 40
1
 40
1
 10
5.285435
 20
-11.353411
 30
0.0
 10
5.357489
 20
-11.181382
 30
0.0
 10
5.461703
 20
-11.026524
 30
0.0
 10
5.590342
 20
-10.896504
 30
0.0
  0
SPLINE
  5
16c
100
AcDbEntity
  8
0
 62
7
100
AcDbSpline
 70
8
 71
3
 72
8
 73
4
 74
0
 40
0
 40
0
 40
0
 40
0
 40
1
 40
1
 40
1
 40
1
 10
5.590342
 20
-10.896504
 30
0.0
 10
5.718982
 20
-10.766484
 30
0.0
 10
5.872047
 20
-10.661306
 30
0.0
 10
6.041805
 20
-10.588628
 30
0.0
  0
SPLINE
  5
16d
100
AcDbEntity
  8
0
 62
7
100
AcDbSpline
 70
8
 71
3
 72
8
 73
4
 74
0
 40
0
 40
0
 40
0
 40
0
 40
1
 40
1
 40
1
 40
1
 10
6.041805
 20
-10.588628
 30
0.0
 10
6.211562
 20
-10.515953
 30
0.0
 10
6.398011
 20
-10.475781
 30
0.0
 10
6.593419
 20
-10.475781
 30
0.0
  0
LWPOLYLINE
  5
16e
100
AcDbEntity
  8
0
 62
7
100
AcDbPolyline
 90
5
 70
0
 10
13.684253
 20
7.771649
 30
0.0
 10
12.974288
 20
7.771649
 30
0.0
 10
12.264322
 20
7.771649
 30
0.0
 10
11.554356
 20
7.771649
 30
0.0
 10
10.844391
 20
7.771649
 30
0.0
  0
LWPOLYLINE
  5
16f
100
AcDbEntity
  8
0
 62
7
100
AcDbPolyline
 90
2
 70
0
 10
6.593419
 20
-10.475781
 30
0.0
 10
6.593419
 20
-10.475781
 30
0.0
  0
ENDSEC
  0
SECTION
  2
OBJECTS
  0
DICTIONARY
  5
C
330
0
100
AcDbDictionary
  3
ACAD_GROUP
350
D
  3
ACAD_MLINESTYLE
350
17
  0
DICTIONARY
  5
D
330
C
100
AcDbDictionary
  0
DICTIONARY
  5
1A
330
C
100
AcDbDictionary
  0
DICTIONARY
  5
17
330
C
100
AcDbDictionary
  3
STANDARD
350
18
  0
DICTIONARY
  5
19
330
C
100
AcDbDictionary
  0
ENDSEC
  0
EOF
